<?xml version="1.0" encoding="UTF-8"?><svg xmlns="http://www.w3.org/2000/svg" xmlns:xlink="http://www.w3.org/1999/xlink" stroke-dasharray="none" shape-rendering="auto" font-family="'Dialog'" width="1262" text-rendering="auto" fill-opacity="1" contentScriptType="text/ecmascript" color-interpolation="auto" color-rendering="auto" preserveAspectRatio="xMidYMid meet" font-size="12" fill="black" stroke="black" image-rendering="auto" stroke-miterlimit="10" zoomAndPan="magnify" version="1.0" stroke-linecap="square" stroke-linejoin="miter" contentStyleType="text/css" font-style="normal" height="568" stroke-width="1" stroke-dashoffset="0" font-weight="normal" stroke-opacity="1">
<!--Generated by the Batik Graphics2D SVG Generator-->
<defs id="genericDefs"/>
<g>
<defs id="defs1">
<clipPath clipPathUnits="userSpaceOnUse" id="clipPath1">
<path d="M25 21 L1237 21 L1237 547 L25 547 L25 21 Z"/>
</clipPath>
<clipPath clipPathUnits="userSpaceOnUse" id="clipPath2">
<path d="M-1 -1 L1263 -1 L1263 569 L-1 569 L-1 -1 Z"/>
</clipPath>
</defs>
<g font-size="15" fill="white" text-rendering="geometricPrecision" font-family="'Ubuntu'" stroke-linejoin="round" stroke="white" stroke-width="0" stroke-miterlimit="0">
<rect x="26" y="22" clip-path="url(#clipPath1)" width="1210" height="524" stroke="none"/>
</g>
<g stroke-linecap="butt" font-size="15" fill="rgb(204,204,204)" text-rendering="geometricPrecision" font-family="'Ubuntu'" stroke-dasharray="3,3" stroke="rgb(204,204,204)">
<line clip-path="url(#clipPath1)" fill="none" x1="26" x2="1236" y1="546" y2="546"/>
<line clip-path="url(#clipPath1)" fill="none" x1="26" x2="1236" y1="486" y2="486"/>
<line clip-path="url(#clipPath1)" fill="none" x1="26" x2="1236" y1="426" y2="426"/>
<line clip-path="url(#clipPath1)" fill="none" x1="26" x2="1236" y1="367" y2="367"/>
<line clip-path="url(#clipPath1)" fill="none" x1="26" x2="1236" y1="307" y2="307"/>
<line clip-path="url(#clipPath1)" fill="none" x1="26" x2="1236" y1="248" y2="248"/>
<line clip-path="url(#clipPath1)" fill="none" x1="26" x2="1236" y1="188" y2="188"/>
<line clip-path="url(#clipPath1)" fill="none" x1="26" x2="1236" y1="129" y2="129"/>
<line clip-path="url(#clipPath1)" fill="none" x1="26" x2="1236" y1="69" y2="69"/>
<line clip-path="url(#clipPath1)" fill="none" x1="40" x2="139" y1="546" y2="546" stroke-dasharray="none" stroke="black"/>
<line clip-path="url(#clipPath1)" fill="none" x1="139" x2="237" y1="546" y2="546" stroke-dasharray="none" stroke="black"/>
<line clip-path="url(#clipPath1)" fill="none" x1="237" x2="335" y1="546" y2="546" stroke-dasharray="none" stroke="black"/>
<rect x="335" y="534" clip-path="url(#clipPath1)" fill="rgb(0,0,139)" width="99" stroke-dasharray="none" height="12" stroke="none"/>
<rect x="335" y="534" clip-path="url(#clipPath1)" fill="none" width="99" stroke-dasharray="none" height="12" stroke="black"/>
<rect x="434" y="379" clip-path="url(#clipPath1)" fill="rgb(0,0,139)" width="98" stroke-dasharray="none" height="167" stroke="none"/>
<rect x="434" y="379" clip-path="url(#clipPath1)" fill="none" width="98" stroke-dasharray="none" height="167" stroke="black"/>
<rect x="532" y="331" clip-path="url(#clipPath1)" fill="rgb(0,0,139)" width="99" stroke-dasharray="none" height="215" stroke="none"/>
<rect x="532" y="331" clip-path="url(#clipPath1)" fill="none" width="99" stroke-dasharray="none" height="215" stroke="black"/>
<rect x="631" y="331" clip-path="url(#clipPath1)" fill="rgb(0,0,139)" width="98" stroke-dasharray="none" height="215" stroke="none"/>
<rect x="631" y="331" clip-path="url(#clipPath1)" fill="none" width="98" stroke-dasharray="none" height="215" stroke="black"/>
<rect x="729" y="176" clip-path="url(#clipPath1)" fill="rgb(0,0,139)" width="98" stroke-dasharray="none" height="370" stroke="none"/>
<rect x="729" y="176" clip-path="url(#clipPath1)" fill="none" width="98" stroke-dasharray="none" height="370" stroke="black"/>
<rect x="827" y="153" clip-path="url(#clipPath1)" fill="rgb(0,0,139)" width="99" stroke-dasharray="none" height="393" stroke="none"/>
<rect x="827" y="153" clip-path="url(#clipPath1)" fill="none" width="99" stroke-dasharray="none" height="393" stroke="black"/>
<rect x="926" y="236" clip-path="url(#clipPath1)" fill="rgb(0,0,139)" width="98" stroke-dasharray="none" height="310" stroke="none"/>
<rect x="926" y="236" clip-path="url(#clipPath1)" fill="none" width="98" stroke-dasharray="none" height="310" stroke="black"/>
<rect x="1024" y="331" clip-path="url(#clipPath1)" fill="rgb(0,0,139)" width="98" stroke-dasharray="none" height="215" stroke="none"/>
<rect x="1024" y="331" clip-path="url(#clipPath1)" fill="none" width="98" stroke-dasharray="none" height="215" stroke="black"/>
<rect x="1122" y="295" clip-path="url(#clipPath1)" fill="rgb(0,0,139)" width="99" stroke-dasharray="none" height="251" stroke="none"/>
<rect x="1122" y="295" clip-path="url(#clipPath1)" fill="none" width="99" stroke-dasharray="none" height="251" stroke="black"/>
<rect x="26" y="22" clip-path="url(#clipPath2)" fill="none" width="1210" stroke-dasharray="none" height="524" stroke="black"/>
</g>
<g text-rendering="geometricPrecision" font-size="13" stroke-linecap="butt">
<line clip-path="url(#clipPath2)" fill="none" x1="26" x2="1236" y1="20" y2="20"/>
<line clip-path="url(#clipPath2)" fill="none" x1="26" x2="1236" y1="548" y2="548"/>
<line clip-path="url(#clipPath2)" fill="none" x1="40" x2="40" y1="16" y2="20"/>
<line clip-path="url(#clipPath2)" fill="none" x1="40" x2="40" y1="552" y2="548"/>
<text x="31" font-size="11" y="14" clip-path="url(#clipPath2)" stroke="none" xml:space="preserve">-2.0</text>
<text x="31" font-size="11" y="564" clip-path="url(#clipPath2)" stroke="none" xml:space="preserve">-2.0</text>
<line clip-path="url(#clipPath2)" fill="none" x1="60" x2="60" y1="18" y2="20"/>
<line clip-path="url(#clipPath2)" fill="none" x1="60" x2="60" y1="550" y2="548"/>
<line clip-path="url(#clipPath2)" fill="none" x1="80" x2="80" y1="18" y2="20"/>
<line clip-path="url(#clipPath2)" fill="none" x1="80" x2="80" y1="550" y2="548"/>
<line clip-path="url(#clipPath2)" fill="none" x1="99" x2="99" y1="18" y2="20"/>
<line clip-path="url(#clipPath2)" fill="none" x1="99" x2="99" y1="550" y2="548"/>
<line clip-path="url(#clipPath2)" fill="none" x1="119" x2="119" y1="18" y2="20"/>
<line clip-path="url(#clipPath2)" fill="none" x1="119" x2="119" y1="550" y2="548"/>
<line clip-path="url(#clipPath2)" fill="none" x1="139" x2="139" y1="16" y2="20"/>
<line clip-path="url(#clipPath2)" fill="none" x1="139" x2="139" y1="552" y2="548"/>
<text x="130" font-size="11" y="14" clip-path="url(#clipPath2)" stroke="none" xml:space="preserve">-1.0</text>
<text x="130" font-size="11" y="564" clip-path="url(#clipPath2)" stroke="none" xml:space="preserve">-1.0</text>
<line clip-path="url(#clipPath2)" fill="none" x1="158" x2="158" y1="18" y2="20"/>
<line clip-path="url(#clipPath2)" fill="none" x1="158" x2="158" y1="550" y2="548"/>
<line clip-path="url(#clipPath2)" fill="none" x1="178" x2="178" y1="18" y2="20"/>
<line clip-path="url(#clipPath2)" fill="none" x1="178" x2="178" y1="550" y2="548"/>
<line clip-path="url(#clipPath2)" fill="none" x1="198" x2="198" y1="18" y2="20"/>
<line clip-path="url(#clipPath2)" fill="none" x1="198" x2="198" y1="550" y2="548"/>
<line clip-path="url(#clipPath2)" fill="none" x1="217" x2="217" y1="18" y2="20"/>
<line clip-path="url(#clipPath2)" fill="none" x1="217" x2="217" y1="550" y2="548"/>
<line clip-path="url(#clipPath2)" fill="none" x1="237" x2="237" y1="16" y2="20"/>
<line clip-path="url(#clipPath2)" fill="none" x1="237" x2="237" y1="552" y2="548"/>
<text x="231" font-size="11" y="14" clip-path="url(#clipPath2)" stroke="none" xml:space="preserve">0.0</text>
<text x="231" font-size="11" y="564" clip-path="url(#clipPath2)" stroke="none" xml:space="preserve">0.0</text>
<line clip-path="url(#clipPath2)" fill="none" x1="257" x2="257" y1="18" y2="20"/>
<line clip-path="url(#clipPath2)" fill="none" x1="257" x2="257" y1="550" y2="548"/>
<line clip-path="url(#clipPath2)" fill="none" x1="276" x2="276" y1="18" y2="20"/>
<line clip-path="url(#clipPath2)" fill="none" x1="276" x2="276" y1="550" y2="548"/>
<line clip-path="url(#clipPath2)" fill="none" x1="296" x2="296" y1="18" y2="20"/>
<line clip-path="url(#clipPath2)" fill="none" x1="296" x2="296" y1="550" y2="548"/>
<line clip-path="url(#clipPath2)" fill="none" x1="316" x2="316" y1="18" y2="20"/>
<line clip-path="url(#clipPath2)" fill="none" x1="316" x2="316" y1="550" y2="548"/>
<line clip-path="url(#clipPath2)" fill="none" x1="335" x2="335" y1="16" y2="20"/>
<line clip-path="url(#clipPath2)" fill="none" x1="335" x2="335" y1="552" y2="548"/>
<text x="329" font-size="11" y="14" clip-path="url(#clipPath2)" stroke="none" xml:space="preserve">1.0</text>
<text x="329" font-size="11" y="564" clip-path="url(#clipPath2)" stroke="none" xml:space="preserve">1.0</text>
<line clip-path="url(#clipPath2)" fill="none" x1="355" x2="355" y1="18" y2="20"/>
<line clip-path="url(#clipPath2)" fill="none" x1="355" x2="355" y1="550" y2="548"/>
<line clip-path="url(#clipPath2)" fill="none" x1="375" x2="375" y1="18" y2="20"/>
<line clip-path="url(#clipPath2)" fill="none" x1="375" x2="375" y1="550" y2="548"/>
<line clip-path="url(#clipPath2)" fill="none" x1="394" x2="394" y1="18" y2="20"/>
<line clip-path="url(#clipPath2)" fill="none" x1="394" x2="394" y1="550" y2="548"/>
<line clip-path="url(#clipPath2)" fill="none" x1="414" x2="414" y1="18" y2="20"/>
<line clip-path="url(#clipPath2)" fill="none" x1="414" x2="414" y1="550" y2="548"/>
<line clip-path="url(#clipPath2)" fill="none" x1="434" x2="434" y1="16" y2="20"/>
<line clip-path="url(#clipPath2)" fill="none" x1="434" x2="434" y1="552" y2="548"/>
<text x="428" font-size="11" y="14" clip-path="url(#clipPath2)" stroke="none" xml:space="preserve">2.0</text>
<text x="428" font-size="11" y="564" clip-path="url(#clipPath2)" stroke="none" xml:space="preserve">2.0</text>
<line clip-path="url(#clipPath2)" fill="none" x1="453" x2="453" y1="18" y2="20"/>
<line clip-path="url(#clipPath2)" fill="none" x1="453" x2="453" y1="550" y2="548"/>
<line clip-path="url(#clipPath2)" fill="none" x1="473" x2="473" y1="18" y2="20"/>
<line clip-path="url(#clipPath2)" fill="none" x1="473" x2="473" y1="550" y2="548"/>
<line clip-path="url(#clipPath2)" fill="none" x1="493" x2="493" y1="18" y2="20"/>
<line clip-path="url(#clipPath2)" fill="none" x1="493" x2="493" y1="550" y2="548"/>
<line clip-path="url(#clipPath2)" fill="none" x1="512" x2="512" y1="18" y2="20"/>
<line clip-path="url(#clipPath2)" fill="none" x1="512" x2="512" y1="550" y2="548"/>
<line clip-path="url(#clipPath2)" fill="none" x1="532" x2="532" y1="16" y2="20"/>
<line clip-path="url(#clipPath2)" fill="none" x1="532" x2="532" y1="552" y2="548"/>
<text x="526" font-size="11" y="14" clip-path="url(#clipPath2)" stroke="none" xml:space="preserve">3.0</text>
<text x="526" font-size="11" y="564" clip-path="url(#clipPath2)" stroke="none" xml:space="preserve">3.0</text>
<line clip-path="url(#clipPath2)" fill="none" x1="552" x2="552" y1="18" y2="20"/>
<line clip-path="url(#clipPath2)" fill="none" x1="552" x2="552" y1="550" y2="548"/>
<line clip-path="url(#clipPath2)" fill="none" x1="571" x2="571" y1="18" y2="20"/>
<line clip-path="url(#clipPath2)" fill="none" x1="571" x2="571" y1="550" y2="548"/>
<line clip-path="url(#clipPath2)" fill="none" x1="591" x2="591" y1="18" y2="20"/>
<line clip-path="url(#clipPath2)" fill="none" x1="591" x2="591" y1="550" y2="548"/>
<line clip-path="url(#clipPath2)" fill="none" x1="611" x2="611" y1="18" y2="20"/>
<line clip-path="url(#clipPath2)" fill="none" x1="611" x2="611" y1="550" y2="548"/>
<line clip-path="url(#clipPath2)" fill="none" x1="631" x2="631" y1="16" y2="20"/>
<line clip-path="url(#clipPath2)" fill="none" x1="631" x2="631" y1="552" y2="548"/>
<text x="625" font-size="11" y="14" clip-path="url(#clipPath2)" stroke="none" xml:space="preserve">4.0</text>
<text x="625" font-size="11" y="564" clip-path="url(#clipPath2)" stroke="none" xml:space="preserve">4.0</text>
<line clip-path="url(#clipPath2)" fill="none" x1="650" x2="650" y1="18" y2="20"/>
<line clip-path="url(#clipPath2)" fill="none" x1="650" x2="650" y1="550" y2="548"/>
<line clip-path="url(#clipPath2)" fill="none" x1="670" x2="670" y1="18" y2="20"/>
<line clip-path="url(#clipPath2)" fill="none" x1="670" x2="670" y1="550" y2="548"/>
<line clip-path="url(#clipPath2)" fill="none" x1="690" x2="690" y1="18" y2="20"/>
<line clip-path="url(#clipPath2)" fill="none" x1="690" x2="690" y1="550" y2="548"/>
<line clip-path="url(#clipPath2)" fill="none" x1="709" x2="709" y1="18" y2="20"/>
<line clip-path="url(#clipPath2)" fill="none" x1="709" x2="709" y1="550" y2="548"/>
<line clip-path="url(#clipPath2)" fill="none" x1="729" x2="729" y1="16" y2="20"/>
<line clip-path="url(#clipPath2)" fill="none" x1="729" x2="729" y1="552" y2="548"/>
<text x="723" font-size="11" y="14" clip-path="url(#clipPath2)" stroke="none" xml:space="preserve">5.0</text>
<text x="723" font-size="11" y="564" clip-path="url(#clipPath2)" stroke="none" xml:space="preserve">5.0</text>
<line clip-path="url(#clipPath2)" fill="none" x1="749" x2="749" y1="18" y2="20"/>
<line clip-path="url(#clipPath2)" fill="none" x1="749" x2="749" y1="550" y2="548"/>
<line clip-path="url(#clipPath2)" fill="none" x1="768" x2="768" y1="18" y2="20"/>
<line clip-path="url(#clipPath2)" fill="none" x1="768" x2="768" y1="550" y2="548"/>
<line clip-path="url(#clipPath2)" fill="none" x1="788" x2="788" y1="18" y2="20"/>
<line clip-path="url(#clipPath2)" fill="none" x1="788" x2="788" y1="550" y2="548"/>
<line clip-path="url(#clipPath2)" fill="none" x1="808" x2="808" y1="18" y2="20"/>
<line clip-path="url(#clipPath2)" fill="none" x1="808" x2="808" y1="550" y2="548"/>
<line clip-path="url(#clipPath2)" fill="none" x1="827" x2="827" y1="16" y2="20"/>
<line clip-path="url(#clipPath2)" fill="none" x1="827" x2="827" y1="552" y2="548"/>
<text x="821" font-size="11" y="14" clip-path="url(#clipPath2)" stroke="none" xml:space="preserve">6.0</text>
<text x="821" font-size="11" y="564" clip-path="url(#clipPath2)" stroke="none" xml:space="preserve">6.0</text>
<line clip-path="url(#clipPath2)" fill="none" x1="847" x2="847" y1="18" y2="20"/>
<line clip-path="url(#clipPath2)" fill="none" x1="847" x2="847" y1="550" y2="548"/>
<line clip-path="url(#clipPath2)" fill="none" x1="867" x2="867" y1="18" y2="20"/>
<line clip-path="url(#clipPath2)" fill="none" x1="867" x2="867" y1="550" y2="548"/>
<line clip-path="url(#clipPath2)" fill="none" x1="886" x2="886" y1="18" y2="20"/>
<line clip-path="url(#clipPath2)" fill="none" x1="886" x2="886" y1="550" y2="548"/>
<line clip-path="url(#clipPath2)" fill="none" x1="906" x2="906" y1="18" y2="20"/>
<line clip-path="url(#clipPath2)" fill="none" x1="906" x2="906" y1="550" y2="548"/>
<line clip-path="url(#clipPath2)" fill="none" x1="926" x2="926" y1="16" y2="20"/>
<line clip-path="url(#clipPath2)" fill="none" x1="926" x2="926" y1="552" y2="548"/>
<text x="920" font-size="11" y="14" clip-path="url(#clipPath2)" stroke="none" xml:space="preserve">7.0</text>
<text x="920" font-size="11" y="564" clip-path="url(#clipPath2)" stroke="none" xml:space="preserve">7.0</text>
<line clip-path="url(#clipPath2)" fill="none" x1="945" x2="945" y1="18" y2="20"/>
<line clip-path="url(#clipPath2)" fill="none" x1="945" x2="945" y1="550" y2="548"/>
<line clip-path="url(#clipPath2)" fill="none" x1="965" x2="965" y1="18" y2="20"/>
<line clip-path="url(#clipPath2)" fill="none" x1="965" x2="965" y1="550" y2="548"/>
<line clip-path="url(#clipPath2)" fill="none" x1="985" x2="985" y1="18" y2="20"/>
<line clip-path="url(#clipPath2)" fill="none" x1="985" x2="985" y1="550" y2="548"/>
<line clip-path="url(#clipPath2)" fill="none" x1="1004" x2="1004" y1="18" y2="20"/>
<line clip-path="url(#clipPath2)" fill="none" x1="1004" x2="1004" y1="550" y2="548"/>
<line clip-path="url(#clipPath2)" fill="none" x1="1024" x2="1024" y1="16" y2="20"/>
<line clip-path="url(#clipPath2)" fill="none" x1="1024" x2="1024" y1="552" y2="548"/>
<text x="1018" font-size="11" y="14" clip-path="url(#clipPath2)" stroke="none" xml:space="preserve">8.0</text>
<text x="1018" font-size="11" y="564" clip-path="url(#clipPath2)" stroke="none" xml:space="preserve">8.0</text>
<line clip-path="url(#clipPath2)" fill="none" x1="1044" x2="1044" y1="18" y2="20"/>
<line clip-path="url(#clipPath2)" fill="none" x1="1044" x2="1044" y1="550" y2="548"/>
<line clip-path="url(#clipPath2)" fill="none" x1="1063" x2="1063" y1="18" y2="20"/>
<line clip-path="url(#clipPath2)" fill="none" x1="1063" x2="1063" y1="550" y2="548"/>
<line clip-path="url(#clipPath2)" fill="none" x1="1083" x2="1083" y1="18" y2="20"/>
<line clip-path="url(#clipPath2)" fill="none" x1="1083" x2="1083" y1="550" y2="548"/>
<line clip-path="url(#clipPath2)" fill="none" x1="1103" x2="1103" y1="18" y2="20"/>
<line clip-path="url(#clipPath2)" fill="none" x1="1103" x2="1103" y1="550" y2="548"/>
<line clip-path="url(#clipPath2)" fill="none" x1="1122" x2="1122" y1="16" y2="20"/>
<line clip-path="url(#clipPath2)" fill="none" x1="1122" x2="1122" y1="552" y2="548"/>
<text x="1116" font-size="11" y="14" clip-path="url(#clipPath2)" stroke="none" xml:space="preserve">9.0</text>
<text x="1116" font-size="11" y="564" clip-path="url(#clipPath2)" stroke="none" xml:space="preserve">9.0</text>
<line clip-path="url(#clipPath2)" fill="none" x1="1142" x2="1142" y1="18" y2="20"/>
<line clip-path="url(#clipPath2)" fill="none" x1="1142" x2="1142" y1="550" y2="548"/>
<line clip-path="url(#clipPath2)" fill="none" x1="1162" x2="1162" y1="18" y2="20"/>
<line clip-path="url(#clipPath2)" fill="none" x1="1162" x2="1162" y1="550" y2="548"/>
<line clip-path="url(#clipPath2)" fill="none" x1="1181" x2="1181" y1="18" y2="20"/>
<line clip-path="url(#clipPath2)" fill="none" x1="1181" x2="1181" y1="550" y2="548"/>
<line clip-path="url(#clipPath2)" fill="none" x1="1201" x2="1201" y1="18" y2="20"/>
<line clip-path="url(#clipPath2)" fill="none" x1="1201" x2="1201" y1="550" y2="548"/>
<line clip-path="url(#clipPath2)" fill="none" x1="1221" x2="1221" y1="16" y2="20"/>
<line clip-path="url(#clipPath2)" fill="none" x1="1221" x2="1221" y1="552" y2="548"/>
<text x="1212" font-size="11" y="14" clip-path="url(#clipPath2)" stroke="none" xml:space="preserve">10.0</text>
<text x="1212" font-size="11" y="564" clip-path="url(#clipPath2)" stroke="none" xml:space="preserve">10.0</text>
<line clip-path="url(#clipPath2)" fill="none" x1="24" x2="24" y1="22" y2="546"/>
<line clip-path="url(#clipPath2)" fill="none" x1="1238" x2="1238" y1="22" y2="546"/>
<line clip-path="url(#clipPath2)" fill="none" x1="20" x2="24" y1="546" y2="546"/>
<line clip-path="url(#clipPath2)" fill="none" x1="1242" x2="1238" y1="546" y2="546"/>
<text x="14" font-size="11" y="551" clip-path="url(#clipPath2)" stroke="none" xml:space="preserve">0</text>
<text x="1245" font-size="11" y="551" clip-path="url(#clipPath2)" stroke="none" xml:space="preserve">0</text>
<line clip-path="url(#clipPath2)" fill="none" x1="22" x2="24" y1="534" y2="534"/>
<line clip-path="url(#clipPath2)" fill="none" x1="1240" x2="1238" y1="534" y2="534"/>
<line clip-path="url(#clipPath2)" fill="none" x1="22" x2="24" y1="522" y2="522"/>
<line clip-path="url(#clipPath2)" fill="none" x1="1240" x2="1238" y1="522" y2="522"/>
<line clip-path="url(#clipPath2)" fill="none" x1="22" x2="24" y1="510" y2="510"/>
<line clip-path="url(#clipPath2)" fill="none" x1="1240" x2="1238" y1="510" y2="510"/>
<line clip-path="url(#clipPath2)" fill="none" x1="22" x2="24" y1="498" y2="498"/>
<line clip-path="url(#clipPath2)" fill="none" x1="1240" x2="1238" y1="498" y2="498"/>
<line clip-path="url(#clipPath2)" fill="none" x1="20" x2="24" y1="486" y2="486"/>
<line clip-path="url(#clipPath2)" fill="none" x1="1242" x2="1238" y1="486" y2="486"/>
<text x="14" font-size="11" y="491" clip-path="url(#clipPath2)" stroke="none" xml:space="preserve">5</text>
<text x="1245" font-size="11" y="491" clip-path="url(#clipPath2)" stroke="none" xml:space="preserve">5</text>
<line clip-path="url(#clipPath2)" fill="none" x1="22" x2="24" y1="474" y2="474"/>
<line clip-path="url(#clipPath2)" fill="none" x1="1240" x2="1238" y1="474" y2="474"/>
<line clip-path="url(#clipPath2)" fill="none" x1="22" x2="24" y1="462" y2="462"/>
<line clip-path="url(#clipPath2)" fill="none" x1="1240" x2="1238" y1="462" y2="462"/>
<line clip-path="url(#clipPath2)" fill="none" x1="22" x2="24" y1="450" y2="450"/>
<line clip-path="url(#clipPath2)" fill="none" x1="1240" x2="1238" y1="450" y2="450"/>
<line clip-path="url(#clipPath2)" fill="none" x1="22" x2="24" y1="438" y2="438"/>
<line clip-path="url(#clipPath2)" fill="none" x1="1240" x2="1238" y1="438" y2="438"/>
<line clip-path="url(#clipPath2)" fill="none" x1="20" x2="24" y1="426" y2="426"/>
<line clip-path="url(#clipPath2)" fill="none" x1="1242" x2="1238" y1="426" y2="426"/>
<text x="9" font-size="11" y="431" clip-path="url(#clipPath2)" stroke="none" xml:space="preserve">10</text>
<text x="1245" font-size="11" y="431" clip-path="url(#clipPath2)" stroke="none" xml:space="preserve">10</text>
<line clip-path="url(#clipPath2)" fill="none" x1="22" x2="24" y1="415" y2="415"/>
<line clip-path="url(#clipPath2)" fill="none" x1="1240" x2="1238" y1="415" y2="415"/>
<line clip-path="url(#clipPath2)" fill="none" x1="22" x2="24" y1="403" y2="403"/>
<line clip-path="url(#clipPath2)" fill="none" x1="1240" x2="1238" y1="403" y2="403"/>
<line clip-path="url(#clipPath2)" fill="none" x1="22" x2="24" y1="391" y2="391"/>
<line clip-path="url(#clipPath2)" fill="none" x1="1240" x2="1238" y1="391" y2="391"/>
<line clip-path="url(#clipPath2)" fill="none" x1="22" x2="24" y1="379" y2="379"/>
<line clip-path="url(#clipPath2)" fill="none" x1="1240" x2="1238" y1="379" y2="379"/>
<line clip-path="url(#clipPath2)" fill="none" x1="20" x2="24" y1="367" y2="367"/>
<line clip-path="url(#clipPath2)" fill="none" x1="1242" x2="1238" y1="367" y2="367"/>
<text x="9" font-size="11" y="372" clip-path="url(#clipPath2)" stroke="none" xml:space="preserve">15</text>
<text x="1245" font-size="11" y="372" clip-path="url(#clipPath2)" stroke="none" xml:space="preserve">15</text>
<line clip-path="url(#clipPath2)" fill="none" x1="22" x2="24" y1="355" y2="355"/>
<line clip-path="url(#clipPath2)" fill="none" x1="1240" x2="1238" y1="355" y2="355"/>
<line clip-path="url(#clipPath2)" fill="none" x1="22" x2="24" y1="343" y2="343"/>
<line clip-path="url(#clipPath2)" fill="none" x1="1240" x2="1238" y1="343" y2="343"/>
<line clip-path="url(#clipPath2)" fill="none" x1="22" x2="24" y1="331" y2="331"/>
<line clip-path="url(#clipPath2)" fill="none" x1="1240" x2="1238" y1="331" y2="331"/>
<line clip-path="url(#clipPath2)" fill="none" x1="22" x2="24" y1="319" y2="319"/>
<line clip-path="url(#clipPath2)" fill="none" x1="1240" x2="1238" y1="319" y2="319"/>
<line clip-path="url(#clipPath2)" fill="none" x1="20" x2="24" y1="307" y2="307"/>
<line clip-path="url(#clipPath2)" fill="none" x1="1242" x2="1238" y1="307" y2="307"/>
<text x="9" font-size="11" y="312" clip-path="url(#clipPath2)" stroke="none" xml:space="preserve">20</text>
<text x="1245" font-size="11" y="312" clip-path="url(#clipPath2)" stroke="none" xml:space="preserve">20</text>
<line clip-path="url(#clipPath2)" fill="none" x1="22" x2="24" y1="295" y2="295"/>
<line clip-path="url(#clipPath2)" fill="none" x1="1240" x2="1238" y1="295" y2="295"/>
<line clip-path="url(#clipPath2)" fill="none" x1="22" x2="24" y1="284" y2="284"/>
<line clip-path="url(#clipPath2)" fill="none" x1="1240" x2="1238" y1="284" y2="284"/>
<line clip-path="url(#clipPath2)" fill="none" x1="22" x2="24" y1="272" y2="272"/>
<line clip-path="url(#clipPath2)" fill="none" x1="1240" x2="1238" y1="272" y2="272"/>
<line clip-path="url(#clipPath2)" fill="none" x1="22" x2="24" y1="260" y2="260"/>
<line clip-path="url(#clipPath2)" fill="none" x1="1240" x2="1238" y1="260" y2="260"/>
<line clip-path="url(#clipPath2)" fill="none" x1="20" x2="24" y1="248" y2="248"/>
<line clip-path="url(#clipPath2)" fill="none" x1="1242" x2="1238" y1="248" y2="248"/>
<text x="9" font-size="11" y="253" clip-path="url(#clipPath2)" stroke="none" xml:space="preserve">25</text>
<text x="1245" font-size="11" y="253" clip-path="url(#clipPath2)" stroke="none" xml:space="preserve">25</text>
<line clip-path="url(#clipPath2)" fill="none" x1="22" x2="24" y1="236" y2="236"/>
<line clip-path="url(#clipPath2)" fill="none" x1="1240" x2="1238" y1="236" y2="236"/>
<line clip-path="url(#clipPath2)" fill="none" x1="22" x2="24" y1="224" y2="224"/>
<line clip-path="url(#clipPath2)" fill="none" x1="1240" x2="1238" y1="224" y2="224"/>
<line clip-path="url(#clipPath2)" fill="none" x1="22" x2="24" y1="212" y2="212"/>
<line clip-path="url(#clipPath2)" fill="none" x1="1240" x2="1238" y1="212" y2="212"/>
<line clip-path="url(#clipPath2)" fill="none" x1="22" x2="24" y1="200" y2="200"/>
<line clip-path="url(#clipPath2)" fill="none" x1="1240" x2="1238" y1="200" y2="200"/>
<line clip-path="url(#clipPath2)" fill="none" x1="20" x2="24" y1="188" y2="188"/>
<line clip-path="url(#clipPath2)" fill="none" x1="1242" x2="1238" y1="188" y2="188"/>
<text x="9" font-size="11" y="193" clip-path="url(#clipPath2)" stroke="none" xml:space="preserve">30</text>
<text x="1245" font-size="11" y="193" clip-path="url(#clipPath2)" stroke="none" xml:space="preserve">30</text>
<line clip-path="url(#clipPath2)" fill="none" x1="22" x2="24" y1="176" y2="176"/>
<line clip-path="url(#clipPath2)" fill="none" x1="1240" x2="1238" y1="176" y2="176"/>
<line clip-path="url(#clipPath2)" fill="none" x1="22" x2="24" y1="164" y2="164"/>
<line clip-path="url(#clipPath2)" fill="none" x1="1240" x2="1238" y1="164" y2="164"/>
<line clip-path="url(#clipPath2)" fill="none" x1="22" x2="24" y1="153" y2="153"/>
<line clip-path="url(#clipPath2)" fill="none" x1="1240" x2="1238" y1="153" y2="153"/>
<line clip-path="url(#clipPath2)" fill="none" x1="22" x2="24" y1="141" y2="141"/>
<line clip-path="url(#clipPath2)" fill="none" x1="1240" x2="1238" y1="141" y2="141"/>
<line clip-path="url(#clipPath2)" fill="none" x1="20" x2="24" y1="129" y2="129"/>
<line clip-path="url(#clipPath2)" fill="none" x1="1242" x2="1238" y1="129" y2="129"/>
<text x="9" font-size="11" y="134" clip-path="url(#clipPath2)" stroke="none" xml:space="preserve">35</text>
<text x="1245" font-size="11" y="134" clip-path="url(#clipPath2)" stroke="none" xml:space="preserve">35</text>
<line clip-path="url(#clipPath2)" fill="none" x1="22" x2="24" y1="117" y2="117"/>
<line clip-path="url(#clipPath2)" fill="none" x1="1240" x2="1238" y1="117" y2="117"/>
<line clip-path="url(#clipPath2)" fill="none" x1="22" x2="24" y1="105" y2="105"/>
<line clip-path="url(#clipPath2)" fill="none" x1="1240" x2="1238" y1="105" y2="105"/>
<line clip-path="url(#clipPath2)" fill="none" x1="22" x2="24" y1="93" y2="93"/>
<line clip-path="url(#clipPath2)" fill="none" x1="1240" x2="1238" y1="93" y2="93"/>
<line clip-path="url(#clipPath2)" fill="none" x1="22" x2="24" y1="81" y2="81"/>
<line clip-path="url(#clipPath2)" fill="none" x1="1240" x2="1238" y1="81" y2="81"/>
<line clip-path="url(#clipPath2)" fill="none" x1="20" x2="24" y1="69" y2="69"/>
<line clip-path="url(#clipPath2)" fill="none" x1="1242" x2="1238" y1="69" y2="69"/>
<text x="9" font-size="11" y="74" clip-path="url(#clipPath2)" stroke="none" xml:space="preserve">40</text>
<text x="1245" font-size="11" y="74" clip-path="url(#clipPath2)" stroke="none" xml:space="preserve">40</text>
<line clip-path="url(#clipPath2)" fill="none" x1="22" x2="24" y1="57" y2="57"/>
<line clip-path="url(#clipPath2)" fill="none" x1="1240" x2="1238" y1="57" y2="57"/>
<line clip-path="url(#clipPath2)" fill="none" x1="22" x2="24" y1="45" y2="45"/>
<line clip-path="url(#clipPath2)" fill="none" x1="1240" x2="1238" y1="45" y2="45"/>
<line clip-path="url(#clipPath2)" fill="none" x1="22" x2="24" y1="33" y2="33"/>
<line clip-path="url(#clipPath2)" fill="none" x1="1240" x2="1238" y1="33" y2="33"/>
<line clip-path="url(#clipPath2)" fill="none" x1="22" x2="24" y1="22" y2="22"/>
<line clip-path="url(#clipPath2)" fill="none" x1="1240" x2="1238" y1="22" y2="22"/>
</g>
</g>
</svg>
