<?xml version="1.0" encoding="UTF-8"?><svg xmlns="http://www.w3.org/2000/svg" xmlns:xlink="http://www.w3.org/1999/xlink" stroke-dasharray="none" shape-rendering="auto" font-family="'Dialog'" width="1262" text-rendering="auto" fill-opacity="1" contentScriptType="text/ecmascript" color-interpolation="auto" color-rendering="auto" preserveAspectRatio="xMidYMid meet" font-size="12" fill="black" stroke="black" image-rendering="auto" stroke-miterlimit="10" zoomAndPan="magnify" version="1.0" stroke-linecap="square" stroke-linejoin="miter" contentStyleType="text/css" font-style="normal" height="578" stroke-width="1" stroke-dashoffset="0" font-weight="normal" stroke-opacity="1">
<!--Generated by the Batik Graphics2D SVG Generator-->
<defs id="genericDefs"/>
<g>
<defs id="defs1">
<clipPath clipPathUnits="userSpaceOnUse" id="clipPath1">
<path d="M25 21 L1237 21 L1237 557 L25 557 L25 21 Z"/>
</clipPath>
<clipPath clipPathUnits="userSpaceOnUse" id="clipPath2">
<path d="M-1 -1 L1263 -1 L1263 579 L-1 579 L-1 -1 Z"/>
</clipPath>
</defs>
<g font-size="15" fill="white" text-rendering="geometricPrecision" font-family="'Ubuntu'" stroke-linejoin="round" stroke="white" stroke-width="0" stroke-miterlimit="0">
<rect x="26" y="22" clip-path="url(#clipPath1)" width="1210" height="534" stroke="none"/>
</g>
<g stroke-linecap="butt" font-size="15" fill="rgb(204,204,204)" text-rendering="geometricPrecision" font-family="'Ubuntu'" stroke-dasharray="3,3" stroke="rgb(204,204,204)">
<line clip-path="url(#clipPath1)" fill="none" x1="26" x2="1236" y1="556" y2="556"/>
<line clip-path="url(#clipPath1)" fill="none" x1="26" x2="1236" y1="494" y2="494"/>
<line clip-path="url(#clipPath1)" fill="none" x1="26" x2="1236" y1="432" y2="432"/>
<line clip-path="url(#clipPath1)" fill="none" x1="26" x2="1236" y1="371" y2="371"/>
<line clip-path="url(#clipPath1)" fill="none" x1="26" x2="1236" y1="309" y2="309"/>
<line clip-path="url(#clipPath1)" fill="none" x1="26" x2="1236" y1="247" y2="247"/>
<line clip-path="url(#clipPath1)" fill="none" x1="26" x2="1236" y1="186" y2="186"/>
<line clip-path="url(#clipPath1)" fill="none" x1="26" x2="1236" y1="124" y2="124"/>
<line clip-path="url(#clipPath1)" fill="none" x1="26" x2="1236" y1="63" y2="63"/>
<line clip-path="url(#clipPath1)" fill="none" x1="40" x2="92" y1="556" y2="556" stroke-dasharray="none" stroke="black"/>
<line clip-path="url(#clipPath1)" fill="none" x1="92" x2="143" y1="556" y2="556" stroke-dasharray="none" stroke="black"/>
<line clip-path="url(#clipPath1)" fill="none" x1="143" x2="194" y1="556" y2="556" stroke-dasharray="none" stroke="black"/>
<line clip-path="url(#clipPath1)" fill="none" x1="194" x2="246" y1="556" y2="556" stroke-dasharray="none" stroke="black"/>
<line clip-path="url(#clipPath1)" fill="none" x1="246" x2="297" y1="556" y2="556" stroke-dasharray="none" stroke="black"/>
<line clip-path="url(#clipPath1)" fill="none" x1="297" x2="348" y1="556" y2="556" stroke-dasharray="none" stroke="black"/>
<rect x="348" y="525" clip-path="url(#clipPath1)" fill="rgb(0,0,139)" width="52" stroke-dasharray="none" height="31" stroke="none"/>
<rect x="348" y="525" clip-path="url(#clipPath1)" fill="none" width="52" stroke-dasharray="none" height="31" stroke="black"/>
<rect x="400" y="309" clip-path="url(#clipPath1)" fill="rgb(0,0,139)" width="51" stroke-dasharray="none" height="247" stroke="none"/>
<rect x="400" y="309" clip-path="url(#clipPath1)" fill="none" width="51" stroke-dasharray="none" height="247" stroke="black"/>
<rect x="451" y="247" clip-path="url(#clipPath1)" fill="rgb(0,0,139)" width="51" stroke-dasharray="none" height="309" stroke="none"/>
<rect x="451" y="247" clip-path="url(#clipPath1)" fill="none" width="51" stroke-dasharray="none" height="309" stroke="black"/>
<rect x="502" y="155" clip-path="url(#clipPath1)" fill="rgb(0,0,139)" width="52" stroke-dasharray="none" height="401" stroke="none"/>
<rect x="502" y="155" clip-path="url(#clipPath1)" fill="none" width="52" stroke-dasharray="none" height="401" stroke="black"/>
<rect x="554" y="186" clip-path="url(#clipPath1)" fill="rgb(0,0,139)" width="51" stroke-dasharray="none" height="370" stroke="none"/>
<rect x="554" y="186" clip-path="url(#clipPath1)" fill="none" width="51" stroke-dasharray="none" height="370" stroke="black"/>
<rect x="605" y="186" clip-path="url(#clipPath1)" fill="rgb(0,0,139)" width="51" stroke-dasharray="none" height="370" stroke="none"/>
<rect x="605" y="186" clip-path="url(#clipPath1)" fill="none" width="51" stroke-dasharray="none" height="370" stroke="black"/>
<rect x="656" y="309" clip-path="url(#clipPath1)" fill="rgb(0,0,139)" width="51" stroke-dasharray="none" height="247" stroke="none"/>
<rect x="656" y="309" clip-path="url(#clipPath1)" fill="none" width="51" stroke-dasharray="none" height="247" stroke="black"/>
<rect x="707" y="432" clip-path="url(#clipPath1)" fill="rgb(0,0,139)" width="52" stroke-dasharray="none" height="124" stroke="none"/>
<rect x="707" y="432" clip-path="url(#clipPath1)" fill="none" width="52" stroke-dasharray="none" height="124" stroke="black"/>
<rect x="759" y="463" clip-path="url(#clipPath1)" fill="rgb(0,0,139)" width="51" stroke-dasharray="none" height="93" stroke="none"/>
<rect x="759" y="463" clip-path="url(#clipPath1)" fill="none" width="51" stroke-dasharray="none" height="93" stroke="black"/>
<rect x="810" y="432" clip-path="url(#clipPath1)" fill="rgb(0,0,139)" width="51" stroke-dasharray="none" height="124" stroke="none"/>
<rect x="810" y="432" clip-path="url(#clipPath1)" fill="none" width="51" stroke-dasharray="none" height="124" stroke="black"/>
<rect x="861" y="525" clip-path="url(#clipPath1)" fill="rgb(0,0,139)" width="52" stroke-dasharray="none" height="31" stroke="none"/>
<rect x="861" y="525" clip-path="url(#clipPath1)" fill="none" width="52" stroke-dasharray="none" height="31" stroke="black"/>
<rect x="913" y="525" clip-path="url(#clipPath1)" fill="rgb(0,0,139)" width="51" stroke-dasharray="none" height="31" stroke="none"/>
<rect x="913" y="525" clip-path="url(#clipPath1)" fill="none" width="51" stroke-dasharray="none" height="31" stroke="black"/>
<line clip-path="url(#clipPath1)" fill="none" x1="964" x2="1015" y1="556" y2="556" stroke-dasharray="none" stroke="black"/>
<line clip-path="url(#clipPath1)" fill="none" x1="1015" x2="1067" y1="556" y2="556" stroke-dasharray="none" stroke="black"/>
<line clip-path="url(#clipPath1)" fill="none" x1="1067" x2="1118" y1="556" y2="556" stroke-dasharray="none" stroke="black"/>
<line clip-path="url(#clipPath1)" fill="none" x1="1118" x2="1169" y1="556" y2="556" stroke-dasharray="none" stroke="black"/>
<line clip-path="url(#clipPath1)" fill="none" x1="1169" x2="1221" y1="556" y2="556" stroke-dasharray="none" stroke="black"/>
<rect x="26" y="22" clip-path="url(#clipPath2)" fill="none" width="1210" stroke-dasharray="none" height="534" stroke="black"/>
</g>
<g text-rendering="geometricPrecision" font-size="13" stroke-linecap="butt">
<line clip-path="url(#clipPath2)" fill="none" x1="26" x2="1236" y1="20" y2="20"/>
<line clip-path="url(#clipPath2)" fill="none" x1="26" x2="1236" y1="558" y2="558"/>
<line clip-path="url(#clipPath2)" fill="none" x1="30" x2="30" y1="18" y2="20"/>
<line clip-path="url(#clipPath2)" fill="none" x1="30" x2="30" y1="560" y2="558"/>
<line clip-path="url(#clipPath2)" fill="none" x1="40" x2="40" y1="16" y2="20"/>
<line clip-path="url(#clipPath2)" fill="none" x1="40" x2="40" y1="562" y2="558"/>
<text x="31" font-size="11" y="14" clip-path="url(#clipPath2)" stroke="none" xml:space="preserve">-5.0</text>
<text x="31" font-size="11" y="574" clip-path="url(#clipPath2)" stroke="none" xml:space="preserve">-5.0</text>
<line clip-path="url(#clipPath2)" fill="none" x1="51" x2="51" y1="18" y2="20"/>
<line clip-path="url(#clipPath2)" fill="none" x1="51" x2="51" y1="560" y2="558"/>
<line clip-path="url(#clipPath2)" fill="none" x1="61" x2="61" y1="18" y2="20"/>
<line clip-path="url(#clipPath2)" fill="none" x1="61" x2="61" y1="560" y2="558"/>
<line clip-path="url(#clipPath2)" fill="none" x1="71" x2="71" y1="18" y2="20"/>
<line clip-path="url(#clipPath2)" fill="none" x1="71" x2="71" y1="560" y2="558"/>
<line clip-path="url(#clipPath2)" fill="none" x1="81" x2="81" y1="18" y2="20"/>
<line clip-path="url(#clipPath2)" fill="none" x1="81" x2="81" y1="560" y2="558"/>
<line clip-path="url(#clipPath2)" fill="none" x1="92" x2="92" y1="16" y2="20"/>
<line clip-path="url(#clipPath2)" fill="none" x1="92" x2="92" y1="562" y2="558"/>
<text x="83" font-size="11" y="14" clip-path="url(#clipPath2)" stroke="none" xml:space="preserve">-4.0</text>
<text x="83" font-size="11" y="574" clip-path="url(#clipPath2)" stroke="none" xml:space="preserve">-4.0</text>
<line clip-path="url(#clipPath2)" fill="none" x1="102" x2="102" y1="18" y2="20"/>
<line clip-path="url(#clipPath2)" fill="none" x1="102" x2="102" y1="560" y2="558"/>
<line clip-path="url(#clipPath2)" fill="none" x1="112" x2="112" y1="18" y2="20"/>
<line clip-path="url(#clipPath2)" fill="none" x1="112" x2="112" y1="560" y2="558"/>
<line clip-path="url(#clipPath2)" fill="none" x1="122" x2="122" y1="18" y2="20"/>
<line clip-path="url(#clipPath2)" fill="none" x1="122" x2="122" y1="560" y2="558"/>
<line clip-path="url(#clipPath2)" fill="none" x1="133" x2="133" y1="18" y2="20"/>
<line clip-path="url(#clipPath2)" fill="none" x1="133" x2="133" y1="560" y2="558"/>
<line clip-path="url(#clipPath2)" fill="none" x1="143" x2="143" y1="16" y2="20"/>
<line clip-path="url(#clipPath2)" fill="none" x1="143" x2="143" y1="562" y2="558"/>
<text x="134" font-size="11" y="14" clip-path="url(#clipPath2)" stroke="none" xml:space="preserve">-3.0</text>
<text x="134" font-size="11" y="574" clip-path="url(#clipPath2)" stroke="none" xml:space="preserve">-3.0</text>
<line clip-path="url(#clipPath2)" fill="none" x1="153" x2="153" y1="18" y2="20"/>
<line clip-path="url(#clipPath2)" fill="none" x1="153" x2="153" y1="560" y2="558"/>
<line clip-path="url(#clipPath2)" fill="none" x1="163" x2="163" y1="18" y2="20"/>
<line clip-path="url(#clipPath2)" fill="none" x1="163" x2="163" y1="560" y2="558"/>
<line clip-path="url(#clipPath2)" fill="none" x1="174" x2="174" y1="18" y2="20"/>
<line clip-path="url(#clipPath2)" fill="none" x1="174" x2="174" y1="560" y2="558"/>
<line clip-path="url(#clipPath2)" fill="none" x1="184" x2="184" y1="18" y2="20"/>
<line clip-path="url(#clipPath2)" fill="none" x1="184" x2="184" y1="560" y2="558"/>
<line clip-path="url(#clipPath2)" fill="none" x1="194" x2="194" y1="16" y2="20"/>
<line clip-path="url(#clipPath2)" fill="none" x1="194" x2="194" y1="562" y2="558"/>
<text x="185" font-size="11" y="14" clip-path="url(#clipPath2)" stroke="none" xml:space="preserve">-2.0</text>
<text x="185" font-size="11" y="574" clip-path="url(#clipPath2)" stroke="none" xml:space="preserve">-2.0</text>
<line clip-path="url(#clipPath2)" fill="none" x1="204" x2="204" y1="18" y2="20"/>
<line clip-path="url(#clipPath2)" fill="none" x1="204" x2="204" y1="560" y2="558"/>
<line clip-path="url(#clipPath2)" fill="none" x1="215" x2="215" y1="18" y2="20"/>
<line clip-path="url(#clipPath2)" fill="none" x1="215" x2="215" y1="560" y2="558"/>
<line clip-path="url(#clipPath2)" fill="none" x1="225" x2="225" y1="18" y2="20"/>
<line clip-path="url(#clipPath2)" fill="none" x1="225" x2="225" y1="560" y2="558"/>
<line clip-path="url(#clipPath2)" fill="none" x1="235" x2="235" y1="18" y2="20"/>
<line clip-path="url(#clipPath2)" fill="none" x1="235" x2="235" y1="560" y2="558"/>
<line clip-path="url(#clipPath2)" fill="none" x1="246" x2="246" y1="16" y2="20"/>
<line clip-path="url(#clipPath2)" fill="none" x1="246" x2="246" y1="562" y2="558"/>
<text x="237" font-size="11" y="14" clip-path="url(#clipPath2)" stroke="none" xml:space="preserve">-1.0</text>
<text x="237" font-size="11" y="574" clip-path="url(#clipPath2)" stroke="none" xml:space="preserve">-1.0</text>
<line clip-path="url(#clipPath2)" fill="none" x1="256" x2="256" y1="18" y2="20"/>
<line clip-path="url(#clipPath2)" fill="none" x1="256" x2="256" y1="560" y2="558"/>
<line clip-path="url(#clipPath2)" fill="none" x1="266" x2="266" y1="18" y2="20"/>
<line clip-path="url(#clipPath2)" fill="none" x1="266" x2="266" y1="560" y2="558"/>
<line clip-path="url(#clipPath2)" fill="none" x1="276" x2="276" y1="18" y2="20"/>
<line clip-path="url(#clipPath2)" fill="none" x1="276" x2="276" y1="560" y2="558"/>
<line clip-path="url(#clipPath2)" fill="none" x1="287" x2="287" y1="18" y2="20"/>
<line clip-path="url(#clipPath2)" fill="none" x1="287" x2="287" y1="560" y2="558"/>
<line clip-path="url(#clipPath2)" fill="none" x1="297" x2="297" y1="16" y2="20"/>
<line clip-path="url(#clipPath2)" fill="none" x1="297" x2="297" y1="562" y2="558"/>
<text x="291" font-size="11" y="14" clip-path="url(#clipPath2)" stroke="none" xml:space="preserve">0.0</text>
<text x="291" font-size="11" y="574" clip-path="url(#clipPath2)" stroke="none" xml:space="preserve">0.0</text>
<line clip-path="url(#clipPath2)" fill="none" x1="307" x2="307" y1="18" y2="20"/>
<line clip-path="url(#clipPath2)" fill="none" x1="307" x2="307" y1="560" y2="558"/>
<line clip-path="url(#clipPath2)" fill="none" x1="317" x2="317" y1="18" y2="20"/>
<line clip-path="url(#clipPath2)" fill="none" x1="317" x2="317" y1="560" y2="558"/>
<line clip-path="url(#clipPath2)" fill="none" x1="328" x2="328" y1="18" y2="20"/>
<line clip-path="url(#clipPath2)" fill="none" x1="328" x2="328" y1="560" y2="558"/>
<line clip-path="url(#clipPath2)" fill="none" x1="338" x2="338" y1="18" y2="20"/>
<line clip-path="url(#clipPath2)" fill="none" x1="338" x2="338" y1="560" y2="558"/>
<line clip-path="url(#clipPath2)" fill="none" x1="348" x2="348" y1="16" y2="20"/>
<line clip-path="url(#clipPath2)" fill="none" x1="348" x2="348" y1="562" y2="558"/>
<text x="342" font-size="11" y="14" clip-path="url(#clipPath2)" stroke="none" xml:space="preserve">1.0</text>
<text x="342" font-size="11" y="574" clip-path="url(#clipPath2)" stroke="none" xml:space="preserve">1.0</text>
<line clip-path="url(#clipPath2)" fill="none" x1="358" x2="358" y1="18" y2="20"/>
<line clip-path="url(#clipPath2)" fill="none" x1="358" x2="358" y1="560" y2="558"/>
<line clip-path="url(#clipPath2)" fill="none" x1="369" x2="369" y1="18" y2="20"/>
<line clip-path="url(#clipPath2)" fill="none" x1="369" x2="369" y1="560" y2="558"/>
<line clip-path="url(#clipPath2)" fill="none" x1="379" x2="379" y1="18" y2="20"/>
<line clip-path="url(#clipPath2)" fill="none" x1="379" x2="379" y1="560" y2="558"/>
<line clip-path="url(#clipPath2)" fill="none" x1="389" x2="389" y1="18" y2="20"/>
<line clip-path="url(#clipPath2)" fill="none" x1="389" x2="389" y1="560" y2="558"/>
<line clip-path="url(#clipPath2)" fill="none" x1="400" x2="400" y1="16" y2="20"/>
<line clip-path="url(#clipPath2)" fill="none" x1="400" x2="400" y1="562" y2="558"/>
<text x="394" font-size="11" y="14" clip-path="url(#clipPath2)" stroke="none" xml:space="preserve">2.0</text>
<text x="394" font-size="11" y="574" clip-path="url(#clipPath2)" stroke="none" xml:space="preserve">2.0</text>
<line clip-path="url(#clipPath2)" fill="none" x1="410" x2="410" y1="18" y2="20"/>
<line clip-path="url(#clipPath2)" fill="none" x1="410" x2="410" y1="560" y2="558"/>
<line clip-path="url(#clipPath2)" fill="none" x1="420" x2="420" y1="18" y2="20"/>
<line clip-path="url(#clipPath2)" fill="none" x1="420" x2="420" y1="560" y2="558"/>
<line clip-path="url(#clipPath2)" fill="none" x1="430" x2="430" y1="18" y2="20"/>
<line clip-path="url(#clipPath2)" fill="none" x1="430" x2="430" y1="560" y2="558"/>
<line clip-path="url(#clipPath2)" fill="none" x1="441" x2="441" y1="18" y2="20"/>
<line clip-path="url(#clipPath2)" fill="none" x1="441" x2="441" y1="560" y2="558"/>
<line clip-path="url(#clipPath2)" fill="none" x1="451" x2="451" y1="16" y2="20"/>
<line clip-path="url(#clipPath2)" fill="none" x1="451" x2="451" y1="562" y2="558"/>
<text x="445" font-size="11" y="14" clip-path="url(#clipPath2)" stroke="none" xml:space="preserve">3.0</text>
<text x="445" font-size="11" y="574" clip-path="url(#clipPath2)" stroke="none" xml:space="preserve">3.0</text>
<line clip-path="url(#clipPath2)" fill="none" x1="461" x2="461" y1="18" y2="20"/>
<line clip-path="url(#clipPath2)" fill="none" x1="461" x2="461" y1="560" y2="558"/>
<line clip-path="url(#clipPath2)" fill="none" x1="471" x2="471" y1="18" y2="20"/>
<line clip-path="url(#clipPath2)" fill="none" x1="471" x2="471" y1="560" y2="558"/>
<line clip-path="url(#clipPath2)" fill="none" x1="482" x2="482" y1="18" y2="20"/>
<line clip-path="url(#clipPath2)" fill="none" x1="482" x2="482" y1="560" y2="558"/>
<line clip-path="url(#clipPath2)" fill="none" x1="492" x2="492" y1="18" y2="20"/>
<line clip-path="url(#clipPath2)" fill="none" x1="492" x2="492" y1="560" y2="558"/>
<line clip-path="url(#clipPath2)" fill="none" x1="502" x2="502" y1="16" y2="20"/>
<line clip-path="url(#clipPath2)" fill="none" x1="502" x2="502" y1="562" y2="558"/>
<text x="496" font-size="11" y="14" clip-path="url(#clipPath2)" stroke="none" xml:space="preserve">4.0</text>
<text x="496" font-size="11" y="574" clip-path="url(#clipPath2)" stroke="none" xml:space="preserve">4.0</text>
<line clip-path="url(#clipPath2)" fill="none" x1="512" x2="512" y1="18" y2="20"/>
<line clip-path="url(#clipPath2)" fill="none" x1="512" x2="512" y1="560" y2="558"/>
<line clip-path="url(#clipPath2)" fill="none" x1="523" x2="523" y1="18" y2="20"/>
<line clip-path="url(#clipPath2)" fill="none" x1="523" x2="523" y1="560" y2="558"/>
<line clip-path="url(#clipPath2)" fill="none" x1="533" x2="533" y1="18" y2="20"/>
<line clip-path="url(#clipPath2)" fill="none" x1="533" x2="533" y1="560" y2="558"/>
<line clip-path="url(#clipPath2)" fill="none" x1="543" x2="543" y1="18" y2="20"/>
<line clip-path="url(#clipPath2)" fill="none" x1="543" x2="543" y1="560" y2="558"/>
<line clip-path="url(#clipPath2)" fill="none" x1="554" x2="554" y1="16" y2="20"/>
<line clip-path="url(#clipPath2)" fill="none" x1="554" x2="554" y1="562" y2="558"/>
<text x="548" font-size="11" y="14" clip-path="url(#clipPath2)" stroke="none" xml:space="preserve">5.0</text>
<text x="548" font-size="11" y="574" clip-path="url(#clipPath2)" stroke="none" xml:space="preserve">5.0</text>
<line clip-path="url(#clipPath2)" fill="none" x1="564" x2="564" y1="18" y2="20"/>
<line clip-path="url(#clipPath2)" fill="none" x1="564" x2="564" y1="560" y2="558"/>
<line clip-path="url(#clipPath2)" fill="none" x1="574" x2="574" y1="18" y2="20"/>
<line clip-path="url(#clipPath2)" fill="none" x1="574" x2="574" y1="560" y2="558"/>
<line clip-path="url(#clipPath2)" fill="none" x1="584" x2="584" y1="18" y2="20"/>
<line clip-path="url(#clipPath2)" fill="none" x1="584" x2="584" y1="560" y2="558"/>
<line clip-path="url(#clipPath2)" fill="none" x1="595" x2="595" y1="18" y2="20"/>
<line clip-path="url(#clipPath2)" fill="none" x1="595" x2="595" y1="560" y2="558"/>
<line clip-path="url(#clipPath2)" fill="none" x1="605" x2="605" y1="16" y2="20"/>
<line clip-path="url(#clipPath2)" fill="none" x1="605" x2="605" y1="562" y2="558"/>
<text x="599" font-size="11" y="14" clip-path="url(#clipPath2)" stroke="none" xml:space="preserve">6.0</text>
<text x="599" font-size="11" y="574" clip-path="url(#clipPath2)" stroke="none" xml:space="preserve">6.0</text>
<line clip-path="url(#clipPath2)" fill="none" x1="615" x2="615" y1="18" y2="20"/>
<line clip-path="url(#clipPath2)" fill="none" x1="615" x2="615" y1="560" y2="558"/>
<line clip-path="url(#clipPath2)" fill="none" x1="625" x2="625" y1="18" y2="20"/>
<line clip-path="url(#clipPath2)" fill="none" x1="625" x2="625" y1="560" y2="558"/>
<line clip-path="url(#clipPath2)" fill="none" x1="636" x2="636" y1="18" y2="20"/>
<line clip-path="url(#clipPath2)" fill="none" x1="636" x2="636" y1="560" y2="558"/>
<line clip-path="url(#clipPath2)" fill="none" x1="646" x2="646" y1="18" y2="20"/>
<line clip-path="url(#clipPath2)" fill="none" x1="646" x2="646" y1="560" y2="558"/>
<line clip-path="url(#clipPath2)" fill="none" x1="656" x2="656" y1="16" y2="20"/>
<line clip-path="url(#clipPath2)" fill="none" x1="656" x2="656" y1="562" y2="558"/>
<text x="650" font-size="11" y="14" clip-path="url(#clipPath2)" stroke="none" xml:space="preserve">7.0</text>
<text x="650" font-size="11" y="574" clip-path="url(#clipPath2)" stroke="none" xml:space="preserve">7.0</text>
<line clip-path="url(#clipPath2)" fill="none" x1="666" x2="666" y1="18" y2="20"/>
<line clip-path="url(#clipPath2)" fill="none" x1="666" x2="666" y1="560" y2="558"/>
<line clip-path="url(#clipPath2)" fill="none" x1="677" x2="677" y1="18" y2="20"/>
<line clip-path="url(#clipPath2)" fill="none" x1="677" x2="677" y1="560" y2="558"/>
<line clip-path="url(#clipPath2)" fill="none" x1="687" x2="687" y1="18" y2="20"/>
<line clip-path="url(#clipPath2)" fill="none" x1="687" x2="687" y1="560" y2="558"/>
<line clip-path="url(#clipPath2)" fill="none" x1="697" x2="697" y1="18" y2="20"/>
<line clip-path="url(#clipPath2)" fill="none" x1="697" x2="697" y1="560" y2="558"/>
<line clip-path="url(#clipPath2)" fill="none" x1="707" x2="707" y1="16" y2="20"/>
<line clip-path="url(#clipPath2)" fill="none" x1="707" x2="707" y1="562" y2="558"/>
<text x="701" font-size="11" y="14" clip-path="url(#clipPath2)" stroke="none" xml:space="preserve">8.0</text>
<text x="701" font-size="11" y="574" clip-path="url(#clipPath2)" stroke="none" xml:space="preserve">8.0</text>
<line clip-path="url(#clipPath2)" fill="none" x1="718" x2="718" y1="18" y2="20"/>
<line clip-path="url(#clipPath2)" fill="none" x1="718" x2="718" y1="560" y2="558"/>
<line clip-path="url(#clipPath2)" fill="none" x1="728" x2="728" y1="18" y2="20"/>
<line clip-path="url(#clipPath2)" fill="none" x1="728" x2="728" y1="560" y2="558"/>
<line clip-path="url(#clipPath2)" fill="none" x1="738" x2="738" y1="18" y2="20"/>
<line clip-path="url(#clipPath2)" fill="none" x1="738" x2="738" y1="560" y2="558"/>
<line clip-path="url(#clipPath2)" fill="none" x1="749" x2="749" y1="18" y2="20"/>
<line clip-path="url(#clipPath2)" fill="none" x1="749" x2="749" y1="560" y2="558"/>
<line clip-path="url(#clipPath2)" fill="none" x1="759" x2="759" y1="16" y2="20"/>
<line clip-path="url(#clipPath2)" fill="none" x1="759" x2="759" y1="562" y2="558"/>
<text x="753" font-size="11" y="14" clip-path="url(#clipPath2)" stroke="none" xml:space="preserve">9.0</text>
<text x="753" font-size="11" y="574" clip-path="url(#clipPath2)" stroke="none" xml:space="preserve">9.0</text>
<line clip-path="url(#clipPath2)" fill="none" x1="769" x2="769" y1="18" y2="20"/>
<line clip-path="url(#clipPath2)" fill="none" x1="769" x2="769" y1="560" y2="558"/>
<line clip-path="url(#clipPath2)" fill="none" x1="779" x2="779" y1="18" y2="20"/>
<line clip-path="url(#clipPath2)" fill="none" x1="779" x2="779" y1="560" y2="558"/>
<line clip-path="url(#clipPath2)" fill="none" x1="790" x2="790" y1="18" y2="20"/>
<line clip-path="url(#clipPath2)" fill="none" x1="790" x2="790" y1="560" y2="558"/>
<line clip-path="url(#clipPath2)" fill="none" x1="800" x2="800" y1="18" y2="20"/>
<line clip-path="url(#clipPath2)" fill="none" x1="800" x2="800" y1="560" y2="558"/>
<line clip-path="url(#clipPath2)" fill="none" x1="810" x2="810" y1="16" y2="20"/>
<line clip-path="url(#clipPath2)" fill="none" x1="810" x2="810" y1="562" y2="558"/>
<text x="801" font-size="11" y="14" clip-path="url(#clipPath2)" stroke="none" xml:space="preserve">10.0</text>
<text x="801" font-size="11" y="574" clip-path="url(#clipPath2)" stroke="none" xml:space="preserve">10.0</text>
<line clip-path="url(#clipPath2)" fill="none" x1="820" x2="820" y1="18" y2="20"/>
<line clip-path="url(#clipPath2)" fill="none" x1="820" x2="820" y1="560" y2="558"/>
<line clip-path="url(#clipPath2)" fill="none" x1="831" x2="831" y1="18" y2="20"/>
<line clip-path="url(#clipPath2)" fill="none" x1="831" x2="831" y1="560" y2="558"/>
<line clip-path="url(#clipPath2)" fill="none" x1="841" x2="841" y1="18" y2="20"/>
<line clip-path="url(#clipPath2)" fill="none" x1="841" x2="841" y1="560" y2="558"/>
<line clip-path="url(#clipPath2)" fill="none" x1="851" x2="851" y1="18" y2="20"/>
<line clip-path="url(#clipPath2)" fill="none" x1="851" x2="851" y1="560" y2="558"/>
<line clip-path="url(#clipPath2)" fill="none" x1="861" x2="861" y1="16" y2="20"/>
<line clip-path="url(#clipPath2)" fill="none" x1="861" x2="861" y1="562" y2="558"/>
<text x="852" font-size="11" y="14" clip-path="url(#clipPath2)" stroke="none" xml:space="preserve">11.0</text>
<text x="852" font-size="11" y="574" clip-path="url(#clipPath2)" stroke="none" xml:space="preserve">11.0</text>
<line clip-path="url(#clipPath2)" fill="none" x1="872" x2="872" y1="18" y2="20"/>
<line clip-path="url(#clipPath2)" fill="none" x1="872" x2="872" y1="560" y2="558"/>
<line clip-path="url(#clipPath2)" fill="none" x1="882" x2="882" y1="18" y2="20"/>
<line clip-path="url(#clipPath2)" fill="none" x1="882" x2="882" y1="560" y2="558"/>
<line clip-path="url(#clipPath2)" fill="none" x1="892" x2="892" y1="18" y2="20"/>
<line clip-path="url(#clipPath2)" fill="none" x1="892" x2="892" y1="560" y2="558"/>
<line clip-path="url(#clipPath2)" fill="none" x1="903" x2="903" y1="18" y2="20"/>
<line clip-path="url(#clipPath2)" fill="none" x1="903" x2="903" y1="560" y2="558"/>
<line clip-path="url(#clipPath2)" fill="none" x1="913" x2="913" y1="16" y2="20"/>
<line clip-path="url(#clipPath2)" fill="none" x1="913" x2="913" y1="562" y2="558"/>
<text x="904" font-size="11" y="14" clip-path="url(#clipPath2)" stroke="none" xml:space="preserve">12.0</text>
<text x="904" font-size="11" y="574" clip-path="url(#clipPath2)" stroke="none" xml:space="preserve">12.0</text>
<line clip-path="url(#clipPath2)" fill="none" x1="923" x2="923" y1="18" y2="20"/>
<line clip-path="url(#clipPath2)" fill="none" x1="923" x2="923" y1="560" y2="558"/>
<line clip-path="url(#clipPath2)" fill="none" x1="933" x2="933" y1="18" y2="20"/>
<line clip-path="url(#clipPath2)" fill="none" x1="933" x2="933" y1="560" y2="558"/>
<line clip-path="url(#clipPath2)" fill="none" x1="944" x2="944" y1="18" y2="20"/>
<line clip-path="url(#clipPath2)" fill="none" x1="944" x2="944" y1="560" y2="558"/>
<line clip-path="url(#clipPath2)" fill="none" x1="954" x2="954" y1="18" y2="20"/>
<line clip-path="url(#clipPath2)" fill="none" x1="954" x2="954" y1="560" y2="558"/>
<line clip-path="url(#clipPath2)" fill="none" x1="964" x2="964" y1="16" y2="20"/>
<line clip-path="url(#clipPath2)" fill="none" x1="964" x2="964" y1="562" y2="558"/>
<text x="955" font-size="11" y="14" clip-path="url(#clipPath2)" stroke="none" xml:space="preserve">13.0</text>
<text x="955" font-size="11" y="574" clip-path="url(#clipPath2)" stroke="none" xml:space="preserve">13.0</text>
<line clip-path="url(#clipPath2)" fill="none" x1="974" x2="974" y1="18" y2="20"/>
<line clip-path="url(#clipPath2)" fill="none" x1="974" x2="974" y1="560" y2="558"/>
<line clip-path="url(#clipPath2)" fill="none" x1="985" x2="985" y1="18" y2="20"/>
<line clip-path="url(#clipPath2)" fill="none" x1="985" x2="985" y1="560" y2="558"/>
<line clip-path="url(#clipPath2)" fill="none" x1="995" x2="995" y1="18" y2="20"/>
<line clip-path="url(#clipPath2)" fill="none" x1="995" x2="995" y1="560" y2="558"/>
<line clip-path="url(#clipPath2)" fill="none" x1="1005" x2="1005" y1="18" y2="20"/>
<line clip-path="url(#clipPath2)" fill="none" x1="1005" x2="1005" y1="560" y2="558"/>
<line clip-path="url(#clipPath2)" fill="none" x1="1015" x2="1015" y1="16" y2="20"/>
<line clip-path="url(#clipPath2)" fill="none" x1="1015" x2="1015" y1="562" y2="558"/>
<text x="1006" font-size="11" y="14" clip-path="url(#clipPath2)" stroke="none" xml:space="preserve">14.0</text>
<text x="1006" font-size="11" y="574" clip-path="url(#clipPath2)" stroke="none" xml:space="preserve">14.0</text>
<line clip-path="url(#clipPath2)" fill="none" x1="1026" x2="1026" y1="18" y2="20"/>
<line clip-path="url(#clipPath2)" fill="none" x1="1026" x2="1026" y1="560" y2="558"/>
<line clip-path="url(#clipPath2)" fill="none" x1="1036" x2="1036" y1="18" y2="20"/>
<line clip-path="url(#clipPath2)" fill="none" x1="1036" x2="1036" y1="560" y2="558"/>
<line clip-path="url(#clipPath2)" fill="none" x1="1046" x2="1046" y1="18" y2="20"/>
<line clip-path="url(#clipPath2)" fill="none" x1="1046" x2="1046" y1="560" y2="558"/>
<line clip-path="url(#clipPath2)" fill="none" x1="1057" x2="1057" y1="18" y2="20"/>
<line clip-path="url(#clipPath2)" fill="none" x1="1057" x2="1057" y1="560" y2="558"/>
<line clip-path="url(#clipPath2)" fill="none" x1="1067" x2="1067" y1="16" y2="20"/>
<line clip-path="url(#clipPath2)" fill="none" x1="1067" x2="1067" y1="562" y2="558"/>
<text x="1058" font-size="11" y="14" clip-path="url(#clipPath2)" stroke="none" xml:space="preserve">15.0</text>
<text x="1058" font-size="11" y="574" clip-path="url(#clipPath2)" stroke="none" xml:space="preserve">15.0</text>
<line clip-path="url(#clipPath2)" fill="none" x1="1077" x2="1077" y1="18" y2="20"/>
<line clip-path="url(#clipPath2)" fill="none" x1="1077" x2="1077" y1="560" y2="558"/>
<line clip-path="url(#clipPath2)" fill="none" x1="1087" x2="1087" y1="18" y2="20"/>
<line clip-path="url(#clipPath2)" fill="none" x1="1087" x2="1087" y1="560" y2="558"/>
<line clip-path="url(#clipPath2)" fill="none" x1="1098" x2="1098" y1="18" y2="20"/>
<line clip-path="url(#clipPath2)" fill="none" x1="1098" x2="1098" y1="560" y2="558"/>
<line clip-path="url(#clipPath2)" fill="none" x1="1108" x2="1108" y1="18" y2="20"/>
<line clip-path="url(#clipPath2)" fill="none" x1="1108" x2="1108" y1="560" y2="558"/>
<line clip-path="url(#clipPath2)" fill="none" x1="1118" x2="1118" y1="16" y2="20"/>
<line clip-path="url(#clipPath2)" fill="none" x1="1118" x2="1118" y1="562" y2="558"/>
<text x="1109" font-size="11" y="14" clip-path="url(#clipPath2)" stroke="none" xml:space="preserve">16.0</text>
<text x="1109" font-size="11" y="574" clip-path="url(#clipPath2)" stroke="none" xml:space="preserve">16.0</text>
<line clip-path="url(#clipPath2)" fill="none" x1="1128" x2="1128" y1="18" y2="20"/>
<line clip-path="url(#clipPath2)" fill="none" x1="1128" x2="1128" y1="560" y2="558"/>
<line clip-path="url(#clipPath2)" fill="none" x1="1139" x2="1139" y1="18" y2="20"/>
<line clip-path="url(#clipPath2)" fill="none" x1="1139" x2="1139" y1="560" y2="558"/>
<line clip-path="url(#clipPath2)" fill="none" x1="1149" x2="1149" y1="18" y2="20"/>
<line clip-path="url(#clipPath2)" fill="none" x1="1149" x2="1149" y1="560" y2="558"/>
<line clip-path="url(#clipPath2)" fill="none" x1="1159" x2="1159" y1="18" y2="20"/>
<line clip-path="url(#clipPath2)" fill="none" x1="1159" x2="1159" y1="560" y2="558"/>
<line clip-path="url(#clipPath2)" fill="none" x1="1169" x2="1169" y1="16" y2="20"/>
<line clip-path="url(#clipPath2)" fill="none" x1="1169" x2="1169" y1="562" y2="558"/>
<text x="1160" font-size="11" y="14" clip-path="url(#clipPath2)" stroke="none" xml:space="preserve">17.0</text>
<text x="1160" font-size="11" y="574" clip-path="url(#clipPath2)" stroke="none" xml:space="preserve">17.0</text>
<line clip-path="url(#clipPath2)" fill="none" x1="1180" x2="1180" y1="18" y2="20"/>
<line clip-path="url(#clipPath2)" fill="none" x1="1180" x2="1180" y1="560" y2="558"/>
<line clip-path="url(#clipPath2)" fill="none" x1="1190" x2="1190" y1="18" y2="20"/>
<line clip-path="url(#clipPath2)" fill="none" x1="1190" x2="1190" y1="560" y2="558"/>
<line clip-path="url(#clipPath2)" fill="none" x1="1200" x2="1200" y1="18" y2="20"/>
<line clip-path="url(#clipPath2)" fill="none" x1="1200" x2="1200" y1="560" y2="558"/>
<line clip-path="url(#clipPath2)" fill="none" x1="1210" x2="1210" y1="18" y2="20"/>
<line clip-path="url(#clipPath2)" fill="none" x1="1210" x2="1210" y1="560" y2="558"/>
<line clip-path="url(#clipPath2)" fill="none" x1="1221" x2="1221" y1="16" y2="20"/>
<line clip-path="url(#clipPath2)" fill="none" x1="1221" x2="1221" y1="562" y2="558"/>
<text x="1212" font-size="11" y="14" clip-path="url(#clipPath2)" stroke="none" xml:space="preserve">18.0</text>
<text x="1212" font-size="11" y="574" clip-path="url(#clipPath2)" stroke="none" xml:space="preserve">18.0</text>
<line clip-path="url(#clipPath2)" fill="none" x1="1231" x2="1231" y1="18" y2="20"/>
<line clip-path="url(#clipPath2)" fill="none" x1="1231" x2="1231" y1="560" y2="558"/>
<line clip-path="url(#clipPath2)" fill="none" x1="24" x2="24" y1="22" y2="556"/>
<line clip-path="url(#clipPath2)" fill="none" x1="1238" x2="1238" y1="22" y2="556"/>
<line clip-path="url(#clipPath2)" fill="none" x1="20" x2="24" y1="556" y2="556"/>
<line clip-path="url(#clipPath2)" fill="none" x1="1242" x2="1238" y1="556" y2="556"/>
<text x="14" font-size="11" y="561" clip-path="url(#clipPath2)" stroke="none" xml:space="preserve">0</text>
<text x="1245" font-size="11" y="561" clip-path="url(#clipPath2)" stroke="none" xml:space="preserve">0</text>
<line clip-path="url(#clipPath2)" fill="none" x1="22" x2="24" y1="525" y2="525"/>
<line clip-path="url(#clipPath2)" fill="none" x1="1240" x2="1238" y1="525" y2="525"/>
<line clip-path="url(#clipPath2)" fill="none" x1="20" x2="24" y1="494" y2="494"/>
<line clip-path="url(#clipPath2)" fill="none" x1="1242" x2="1238" y1="494" y2="494"/>
<text x="14" font-size="11" y="499" clip-path="url(#clipPath2)" stroke="none" xml:space="preserve">2</text>
<text x="1245" font-size="11" y="499" clip-path="url(#clipPath2)" stroke="none" xml:space="preserve">2</text>
<line clip-path="url(#clipPath2)" fill="none" x1="22" x2="24" y1="463" y2="463"/>
<line clip-path="url(#clipPath2)" fill="none" x1="1240" x2="1238" y1="463" y2="463"/>
<line clip-path="url(#clipPath2)" fill="none" x1="20" x2="24" y1="432" y2="432"/>
<line clip-path="url(#clipPath2)" fill="none" x1="1242" x2="1238" y1="432" y2="432"/>
<text x="14" font-size="11" y="437" clip-path="url(#clipPath2)" stroke="none" xml:space="preserve">4</text>
<text x="1245" font-size="11" y="437" clip-path="url(#clipPath2)" stroke="none" xml:space="preserve">4</text>
<line clip-path="url(#clipPath2)" fill="none" x1="22" x2="24" y1="401" y2="401"/>
<line clip-path="url(#clipPath2)" fill="none" x1="1240" x2="1238" y1="401" y2="401"/>
<line clip-path="url(#clipPath2)" fill="none" x1="20" x2="24" y1="371" y2="371"/>
<line clip-path="url(#clipPath2)" fill="none" x1="1242" x2="1238" y1="371" y2="371"/>
<text x="14" font-size="11" y="376" clip-path="url(#clipPath2)" stroke="none" xml:space="preserve">6</text>
<text x="1245" font-size="11" y="376" clip-path="url(#clipPath2)" stroke="none" xml:space="preserve">6</text>
<line clip-path="url(#clipPath2)" fill="none" x1="22" x2="24" y1="340" y2="340"/>
<line clip-path="url(#clipPath2)" fill="none" x1="1240" x2="1238" y1="340" y2="340"/>
<line clip-path="url(#clipPath2)" fill="none" x1="20" x2="24" y1="309" y2="309"/>
<line clip-path="url(#clipPath2)" fill="none" x1="1242" x2="1238" y1="309" y2="309"/>
<text x="14" font-size="11" y="314" clip-path="url(#clipPath2)" stroke="none" xml:space="preserve">8</text>
<text x="1245" font-size="11" y="314" clip-path="url(#clipPath2)" stroke="none" xml:space="preserve">8</text>
<line clip-path="url(#clipPath2)" fill="none" x1="22" x2="24" y1="278" y2="278"/>
<line clip-path="url(#clipPath2)" fill="none" x1="1240" x2="1238" y1="278" y2="278"/>
<line clip-path="url(#clipPath2)" fill="none" x1="20" x2="24" y1="247" y2="247"/>
<line clip-path="url(#clipPath2)" fill="none" x1="1242" x2="1238" y1="247" y2="247"/>
<text x="9" font-size="11" y="252" clip-path="url(#clipPath2)" stroke="none" xml:space="preserve">10</text>
<text x="1245" font-size="11" y="252" clip-path="url(#clipPath2)" stroke="none" xml:space="preserve">10</text>
<line clip-path="url(#clipPath2)" fill="none" x1="22" x2="24" y1="217" y2="217"/>
<line clip-path="url(#clipPath2)" fill="none" x1="1240" x2="1238" y1="217" y2="217"/>
<line clip-path="url(#clipPath2)" fill="none" x1="20" x2="24" y1="186" y2="186"/>
<line clip-path="url(#clipPath2)" fill="none" x1="1242" x2="1238" y1="186" y2="186"/>
<text x="9" font-size="11" y="191" clip-path="url(#clipPath2)" stroke="none" xml:space="preserve">12</text>
<text x="1245" font-size="11" y="191" clip-path="url(#clipPath2)" stroke="none" xml:space="preserve">12</text>
<line clip-path="url(#clipPath2)" fill="none" x1="22" x2="24" y1="155" y2="155"/>
<line clip-path="url(#clipPath2)" fill="none" x1="1240" x2="1238" y1="155" y2="155"/>
<line clip-path="url(#clipPath2)" fill="none" x1="20" x2="24" y1="124" y2="124"/>
<line clip-path="url(#clipPath2)" fill="none" x1="1242" x2="1238" y1="124" y2="124"/>
<text x="9" font-size="11" y="129" clip-path="url(#clipPath2)" stroke="none" xml:space="preserve">14</text>
<text x="1245" font-size="11" y="129" clip-path="url(#clipPath2)" stroke="none" xml:space="preserve">14</text>
<line clip-path="url(#clipPath2)" fill="none" x1="22" x2="24" y1="93" y2="93"/>
<line clip-path="url(#clipPath2)" fill="none" x1="1240" x2="1238" y1="93" y2="93"/>
<line clip-path="url(#clipPath2)" fill="none" x1="20" x2="24" y1="63" y2="63"/>
<line clip-path="url(#clipPath2)" fill="none" x1="1242" x2="1238" y1="63" y2="63"/>
<text x="9" font-size="11" y="68" clip-path="url(#clipPath2)" stroke="none" xml:space="preserve">16</text>
<text x="1245" font-size="11" y="68" clip-path="url(#clipPath2)" stroke="none" xml:space="preserve">16</text>
<line clip-path="url(#clipPath2)" fill="none" x1="22" x2="24" y1="32" y2="32"/>
<line clip-path="url(#clipPath2)" fill="none" x1="1240" x2="1238" y1="32" y2="32"/>
</g>
</g>
</svg>
