<?xml version="1.0" encoding="UTF-8"?><svg xmlns="http://www.w3.org/2000/svg" xmlns:xlink="http://www.w3.org/1999/xlink" stroke-dasharray="none" shape-rendering="auto" font-family="'Dialog'" width="1262" text-rendering="auto" fill-opacity="1" contentScriptType="text/ecmascript" color-interpolation="auto" color-rendering="auto" preserveAspectRatio="xMidYMid meet" font-size="12" fill="black" stroke="black" image-rendering="auto" stroke-miterlimit="10" zoomAndPan="magnify" version="1.0" stroke-linecap="square" stroke-linejoin="miter" contentStyleType="text/css" font-style="normal" height="578" stroke-width="1" stroke-dashoffset="0" font-weight="normal" stroke-opacity="1">
<!--Generated by the Batik Graphics2D SVG Generator-->
<defs id="genericDefs"/>
<g>
<defs id="defs1">
<clipPath clipPathUnits="userSpaceOnUse" id="clipPath1">
<path d="M25 21 L1237 21 L1237 557 L25 557 L25 21 Z"/>
</clipPath>
<clipPath clipPathUnits="userSpaceOnUse" id="clipPath2">
<path d="M-1 -1 L1263 -1 L1263 579 L-1 579 L-1 -1 Z"/>
</clipPath>
</defs>
<g font-size="15" fill="white" text-rendering="geometricPrecision" font-family="'Ubuntu'" stroke-linejoin="round" stroke="white" stroke-width="0" stroke-miterlimit="0">
<rect x="26" y="22" clip-path="url(#clipPath1)" width="1210" height="534" stroke="none"/>
</g>
<g stroke-linecap="butt" font-size="15" fill="rgb(204,204,204)" text-rendering="geometricPrecision" font-family="'Ubuntu'" stroke-dasharray="3,3" stroke="rgb(204,204,204)">
<line clip-path="url(#clipPath1)" fill="none" x1="26" x2="1236" y1="556" y2="556"/>
<line clip-path="url(#clipPath1)" fill="none" x1="26" x2="1236" y1="505" y2="505"/>
<line clip-path="url(#clipPath1)" fill="none" x1="26" x2="1236" y1="455" y2="455"/>
<line clip-path="url(#clipPath1)" fill="none" x1="26" x2="1236" y1="405" y2="405"/>
<line clip-path="url(#clipPath1)" fill="none" x1="26" x2="1236" y1="355" y2="355"/>
<line clip-path="url(#clipPath1)" fill="none" x1="26" x2="1236" y1="305" y2="305"/>
<line clip-path="url(#clipPath1)" fill="none" x1="26" x2="1236" y1="255" y2="255"/>
<line clip-path="url(#clipPath1)" fill="none" x1="26" x2="1236" y1="205" y2="205"/>
<line clip-path="url(#clipPath1)" fill="none" x1="26" x2="1236" y1="155" y2="155"/>
<line clip-path="url(#clipPath1)" fill="none" x1="26" x2="1236" y1="105" y2="105"/>
<line clip-path="url(#clipPath1)" fill="none" x1="26" x2="1236" y1="55" y2="55"/>
<line clip-path="url(#clipPath1)" fill="none" x1="40" x2="188" y1="556" y2="556" stroke-dasharray="none" stroke="black"/>
<line clip-path="url(#clipPath1)" fill="none" x1="188" x2="335" y1="556" y2="556" stroke-dasharray="none" stroke="black"/>
<rect x="335" y="545" clip-path="url(#clipPath1)" fill="rgb(0,0,139)" width="148" stroke-dasharray="none" height="11" stroke="none"/>
<rect x="335" y="545" clip-path="url(#clipPath1)" fill="none" width="148" stroke-dasharray="none" height="11" stroke="black"/>
<rect x="483" y="375" clip-path="url(#clipPath1)" fill="rgb(0,0,139)" width="148" stroke-dasharray="none" height="181" stroke="none"/>
<rect x="483" y="375" clip-path="url(#clipPath1)" fill="none" width="148" stroke-dasharray="none" height="181" stroke="black"/>
<rect x="631" y="255" clip-path="url(#clipPath1)" fill="rgb(0,0,139)" width="147" stroke-dasharray="none" height="301" stroke="none"/>
<rect x="631" y="255" clip-path="url(#clipPath1)" fill="none" width="147" stroke-dasharray="none" height="301" stroke="black"/>
<rect x="778" y="155" clip-path="url(#clipPath1)" fill="rgb(0,0,139)" width="148" stroke-dasharray="none" height="401" stroke="none"/>
<rect x="778" y="155" clip-path="url(#clipPath1)" fill="none" width="148" stroke-dasharray="none" height="401" stroke="black"/>
<rect x="926" y="185" clip-path="url(#clipPath1)" fill="rgb(0,0,139)" width="147" stroke-dasharray="none" height="371" stroke="none"/>
<rect x="926" y="185" clip-path="url(#clipPath1)" fill="none" width="147" stroke-dasharray="none" height="371" stroke="black"/>
<rect x="1073" y="225" clip-path="url(#clipPath1)" fill="rgb(0,0,139)" width="148" stroke-dasharray="none" height="331" stroke="none"/>
<rect x="1073" y="225" clip-path="url(#clipPath1)" fill="none" width="148" stroke-dasharray="none" height="331" stroke="black"/>
<rect x="26" y="22" clip-path="url(#clipPath2)" fill="none" width="1210" stroke-dasharray="none" height="534" stroke="black"/>
</g>
<g text-rendering="geometricPrecision" font-size="13" stroke-linecap="butt">
<line clip-path="url(#clipPath2)" fill="none" x1="26" x2="1236" y1="20" y2="20"/>
<line clip-path="url(#clipPath2)" fill="none" x1="26" x2="1236" y1="558" y2="558"/>
<line clip-path="url(#clipPath2)" fill="none" x1="26" x2="26" y1="18" y2="20"/>
<line clip-path="url(#clipPath2)" fill="none" x1="26" x2="26" y1="560" y2="558"/>
<line clip-path="url(#clipPath2)" fill="none" x1="40" x2="40" y1="16" y2="20"/>
<line clip-path="url(#clipPath2)" fill="none" x1="40" x2="40" y1="562" y2="558"/>
<text x="31" font-size="11" y="14" clip-path="url(#clipPath2)" stroke="none" xml:space="preserve">-1.0</text>
<text x="31" font-size="11" y="574" clip-path="url(#clipPath2)" stroke="none" xml:space="preserve">-1.0</text>
<line clip-path="url(#clipPath2)" fill="none" x1="55" x2="55" y1="18" y2="20"/>
<line clip-path="url(#clipPath2)" fill="none" x1="55" x2="55" y1="560" y2="558"/>
<line clip-path="url(#clipPath2)" fill="none" x1="70" x2="70" y1="18" y2="20"/>
<line clip-path="url(#clipPath2)" fill="none" x1="70" x2="70" y1="560" y2="558"/>
<line clip-path="url(#clipPath2)" fill="none" x1="85" x2="85" y1="18" y2="20"/>
<line clip-path="url(#clipPath2)" fill="none" x1="85" x2="85" y1="560" y2="558"/>
<line clip-path="url(#clipPath2)" fill="none" x1="99" x2="99" y1="18" y2="20"/>
<line clip-path="url(#clipPath2)" fill="none" x1="99" x2="99" y1="560" y2="558"/>
<line clip-path="url(#clipPath2)" fill="none" x1="114" x2="114" y1="16" y2="20"/>
<line clip-path="url(#clipPath2)" fill="none" x1="114" x2="114" y1="562" y2="558"/>
<text x="105" font-size="11" y="14" clip-path="url(#clipPath2)" stroke="none" xml:space="preserve">-0.5</text>
<text x="105" font-size="11" y="574" clip-path="url(#clipPath2)" stroke="none" xml:space="preserve">-0.5</text>
<line clip-path="url(#clipPath2)" fill="none" x1="129" x2="129" y1="18" y2="20"/>
<line clip-path="url(#clipPath2)" fill="none" x1="129" x2="129" y1="560" y2="558"/>
<line clip-path="url(#clipPath2)" fill="none" x1="144" x2="144" y1="18" y2="20"/>
<line clip-path="url(#clipPath2)" fill="none" x1="144" x2="144" y1="560" y2="558"/>
<line clip-path="url(#clipPath2)" fill="none" x1="158" x2="158" y1="18" y2="20"/>
<line clip-path="url(#clipPath2)" fill="none" x1="158" x2="158" y1="560" y2="558"/>
<line clip-path="url(#clipPath2)" fill="none" x1="173" x2="173" y1="18" y2="20"/>
<line clip-path="url(#clipPath2)" fill="none" x1="173" x2="173" y1="560" y2="558"/>
<line clip-path="url(#clipPath2)" fill="none" x1="188" x2="188" y1="16" y2="20"/>
<line clip-path="url(#clipPath2)" fill="none" x1="188" x2="188" y1="562" y2="558"/>
<text x="182" font-size="11" y="14" clip-path="url(#clipPath2)" stroke="none" xml:space="preserve">0.0</text>
<text x="182" font-size="11" y="574" clip-path="url(#clipPath2)" stroke="none" xml:space="preserve">0.0</text>
<line clip-path="url(#clipPath2)" fill="none" x1="203" x2="203" y1="18" y2="20"/>
<line clip-path="url(#clipPath2)" fill="none" x1="203" x2="203" y1="560" y2="558"/>
<line clip-path="url(#clipPath2)" fill="none" x1="217" x2="217" y1="18" y2="20"/>
<line clip-path="url(#clipPath2)" fill="none" x1="217" x2="217" y1="560" y2="558"/>
<line clip-path="url(#clipPath2)" fill="none" x1="232" x2="232" y1="18" y2="20"/>
<line clip-path="url(#clipPath2)" fill="none" x1="232" x2="232" y1="560" y2="558"/>
<line clip-path="url(#clipPath2)" fill="none" x1="247" x2="247" y1="18" y2="20"/>
<line clip-path="url(#clipPath2)" fill="none" x1="247" x2="247" y1="560" y2="558"/>
<line clip-path="url(#clipPath2)" fill="none" x1="262" x2="262" y1="16" y2="20"/>
<line clip-path="url(#clipPath2)" fill="none" x1="262" x2="262" y1="562" y2="558"/>
<text x="256" font-size="11" y="14" clip-path="url(#clipPath2)" stroke="none" xml:space="preserve">0.5</text>
<text x="256" font-size="11" y="574" clip-path="url(#clipPath2)" stroke="none" xml:space="preserve">0.5</text>
<line clip-path="url(#clipPath2)" fill="none" x1="276" x2="276" y1="18" y2="20"/>
<line clip-path="url(#clipPath2)" fill="none" x1="276" x2="276" y1="560" y2="558"/>
<line clip-path="url(#clipPath2)" fill="none" x1="291" x2="291" y1="18" y2="20"/>
<line clip-path="url(#clipPath2)" fill="none" x1="291" x2="291" y1="560" y2="558"/>
<line clip-path="url(#clipPath2)" fill="none" x1="306" x2="306" y1="18" y2="20"/>
<line clip-path="url(#clipPath2)" fill="none" x1="306" x2="306" y1="560" y2="558"/>
<line clip-path="url(#clipPath2)" fill="none" x1="321" x2="321" y1="18" y2="20"/>
<line clip-path="url(#clipPath2)" fill="none" x1="321" x2="321" y1="560" y2="558"/>
<line clip-path="url(#clipPath2)" fill="none" x1="335" x2="335" y1="16" y2="20"/>
<line clip-path="url(#clipPath2)" fill="none" x1="335" x2="335" y1="562" y2="558"/>
<text x="329" font-size="11" y="14" clip-path="url(#clipPath2)" stroke="none" xml:space="preserve">1.0</text>
<text x="329" font-size="11" y="574" clip-path="url(#clipPath2)" stroke="none" xml:space="preserve">1.0</text>
<line clip-path="url(#clipPath2)" fill="none" x1="350" x2="350" y1="18" y2="20"/>
<line clip-path="url(#clipPath2)" fill="none" x1="350" x2="350" y1="560" y2="558"/>
<line clip-path="url(#clipPath2)" fill="none" x1="365" x2="365" y1="18" y2="20"/>
<line clip-path="url(#clipPath2)" fill="none" x1="365" x2="365" y1="560" y2="558"/>
<line clip-path="url(#clipPath2)" fill="none" x1="380" x2="380" y1="18" y2="20"/>
<line clip-path="url(#clipPath2)" fill="none" x1="380" x2="380" y1="560" y2="558"/>
<line clip-path="url(#clipPath2)" fill="none" x1="394" x2="394" y1="18" y2="20"/>
<line clip-path="url(#clipPath2)" fill="none" x1="394" x2="394" y1="560" y2="558"/>
<line clip-path="url(#clipPath2)" fill="none" x1="409" x2="409" y1="16" y2="20"/>
<line clip-path="url(#clipPath2)" fill="none" x1="409" x2="409" y1="562" y2="558"/>
<text x="403" font-size="11" y="14" clip-path="url(#clipPath2)" stroke="none" xml:space="preserve">1.5</text>
<text x="403" font-size="11" y="574" clip-path="url(#clipPath2)" stroke="none" xml:space="preserve">1.5</text>
<line clip-path="url(#clipPath2)" fill="none" x1="424" x2="424" y1="18" y2="20"/>
<line clip-path="url(#clipPath2)" fill="none" x1="424" x2="424" y1="560" y2="558"/>
<line clip-path="url(#clipPath2)" fill="none" x1="439" x2="439" y1="18" y2="20"/>
<line clip-path="url(#clipPath2)" fill="none" x1="439" x2="439" y1="560" y2="558"/>
<line clip-path="url(#clipPath2)" fill="none" x1="453" x2="453" y1="18" y2="20"/>
<line clip-path="url(#clipPath2)" fill="none" x1="453" x2="453" y1="560" y2="558"/>
<line clip-path="url(#clipPath2)" fill="none" x1="468" x2="468" y1="18" y2="20"/>
<line clip-path="url(#clipPath2)" fill="none" x1="468" x2="468" y1="560" y2="558"/>
<line clip-path="url(#clipPath2)" fill="none" x1="483" x2="483" y1="16" y2="20"/>
<line clip-path="url(#clipPath2)" fill="none" x1="483" x2="483" y1="562" y2="558"/>
<text x="477" font-size="11" y="14" clip-path="url(#clipPath2)" stroke="none" xml:space="preserve">2.0</text>
<text x="477" font-size="11" y="574" clip-path="url(#clipPath2)" stroke="none" xml:space="preserve">2.0</text>
<line clip-path="url(#clipPath2)" fill="none" x1="498" x2="498" y1="18" y2="20"/>
<line clip-path="url(#clipPath2)" fill="none" x1="498" x2="498" y1="560" y2="558"/>
<line clip-path="url(#clipPath2)" fill="none" x1="512" x2="512" y1="18" y2="20"/>
<line clip-path="url(#clipPath2)" fill="none" x1="512" x2="512" y1="560" y2="558"/>
<line clip-path="url(#clipPath2)" fill="none" x1="527" x2="527" y1="18" y2="20"/>
<line clip-path="url(#clipPath2)" fill="none" x1="527" x2="527" y1="560" y2="558"/>
<line clip-path="url(#clipPath2)" fill="none" x1="542" x2="542" y1="18" y2="20"/>
<line clip-path="url(#clipPath2)" fill="none" x1="542" x2="542" y1="560" y2="558"/>
<line clip-path="url(#clipPath2)" fill="none" x1="557" x2="557" y1="16" y2="20"/>
<line clip-path="url(#clipPath2)" fill="none" x1="557" x2="557" y1="562" y2="558"/>
<text x="551" font-size="11" y="14" clip-path="url(#clipPath2)" stroke="none" xml:space="preserve">2.5</text>
<text x="551" font-size="11" y="574" clip-path="url(#clipPath2)" stroke="none" xml:space="preserve">2.5</text>
<line clip-path="url(#clipPath2)" fill="none" x1="571" x2="571" y1="18" y2="20"/>
<line clip-path="url(#clipPath2)" fill="none" x1="571" x2="571" y1="560" y2="558"/>
<line clip-path="url(#clipPath2)" fill="none" x1="586" x2="586" y1="18" y2="20"/>
<line clip-path="url(#clipPath2)" fill="none" x1="586" x2="586" y1="560" y2="558"/>
<line clip-path="url(#clipPath2)" fill="none" x1="601" x2="601" y1="18" y2="20"/>
<line clip-path="url(#clipPath2)" fill="none" x1="601" x2="601" y1="560" y2="558"/>
<line clip-path="url(#clipPath2)" fill="none" x1="616" x2="616" y1="18" y2="20"/>
<line clip-path="url(#clipPath2)" fill="none" x1="616" x2="616" y1="560" y2="558"/>
<line clip-path="url(#clipPath2)" fill="none" x1="631" x2="631" y1="16" y2="20"/>
<line clip-path="url(#clipPath2)" fill="none" x1="631" x2="631" y1="562" y2="558"/>
<text x="625" font-size="11" y="14" clip-path="url(#clipPath2)" stroke="none" xml:space="preserve">3.0</text>
<text x="625" font-size="11" y="574" clip-path="url(#clipPath2)" stroke="none" xml:space="preserve">3.0</text>
<line clip-path="url(#clipPath2)" fill="none" x1="645" x2="645" y1="18" y2="20"/>
<line clip-path="url(#clipPath2)" fill="none" x1="645" x2="645" y1="560" y2="558"/>
<line clip-path="url(#clipPath2)" fill="none" x1="660" x2="660" y1="18" y2="20"/>
<line clip-path="url(#clipPath2)" fill="none" x1="660" x2="660" y1="560" y2="558"/>
<line clip-path="url(#clipPath2)" fill="none" x1="675" x2="675" y1="18" y2="20"/>
<line clip-path="url(#clipPath2)" fill="none" x1="675" x2="675" y1="560" y2="558"/>
<line clip-path="url(#clipPath2)" fill="none" x1="690" x2="690" y1="18" y2="20"/>
<line clip-path="url(#clipPath2)" fill="none" x1="690" x2="690" y1="560" y2="558"/>
<line clip-path="url(#clipPath2)" fill="none" x1="704" x2="704" y1="16" y2="20"/>
<line clip-path="url(#clipPath2)" fill="none" x1="704" x2="704" y1="562" y2="558"/>
<text x="698" font-size="11" y="14" clip-path="url(#clipPath2)" stroke="none" xml:space="preserve">3.5</text>
<text x="698" font-size="11" y="574" clip-path="url(#clipPath2)" stroke="none" xml:space="preserve">3.5</text>
<line clip-path="url(#clipPath2)" fill="none" x1="719" x2="719" y1="18" y2="20"/>
<line clip-path="url(#clipPath2)" fill="none" x1="719" x2="719" y1="560" y2="558"/>
<line clip-path="url(#clipPath2)" fill="none" x1="734" x2="734" y1="18" y2="20"/>
<line clip-path="url(#clipPath2)" fill="none" x1="734" x2="734" y1="560" y2="558"/>
<line clip-path="url(#clipPath2)" fill="none" x1="749" x2="749" y1="18" y2="20"/>
<line clip-path="url(#clipPath2)" fill="none" x1="749" x2="749" y1="560" y2="558"/>
<line clip-path="url(#clipPath2)" fill="none" x1="763" x2="763" y1="18" y2="20"/>
<line clip-path="url(#clipPath2)" fill="none" x1="763" x2="763" y1="560" y2="558"/>
<line clip-path="url(#clipPath2)" fill="none" x1="778" x2="778" y1="16" y2="20"/>
<line clip-path="url(#clipPath2)" fill="none" x1="778" x2="778" y1="562" y2="558"/>
<text x="772" font-size="11" y="14" clip-path="url(#clipPath2)" stroke="none" xml:space="preserve">4.0</text>
<text x="772" font-size="11" y="574" clip-path="url(#clipPath2)" stroke="none" xml:space="preserve">4.0</text>
<line clip-path="url(#clipPath2)" fill="none" x1="793" x2="793" y1="18" y2="20"/>
<line clip-path="url(#clipPath2)" fill="none" x1="793" x2="793" y1="560" y2="558"/>
<line clip-path="url(#clipPath2)" fill="none" x1="808" x2="808" y1="18" y2="20"/>
<line clip-path="url(#clipPath2)" fill="none" x1="808" x2="808" y1="560" y2="558"/>
<line clip-path="url(#clipPath2)" fill="none" x1="822" x2="822" y1="18" y2="20"/>
<line clip-path="url(#clipPath2)" fill="none" x1="822" x2="822" y1="560" y2="558"/>
<line clip-path="url(#clipPath2)" fill="none" x1="837" x2="837" y1="18" y2="20"/>
<line clip-path="url(#clipPath2)" fill="none" x1="837" x2="837" y1="560" y2="558"/>
<line clip-path="url(#clipPath2)" fill="none" x1="852" x2="852" y1="16" y2="20"/>
<line clip-path="url(#clipPath2)" fill="none" x1="852" x2="852" y1="562" y2="558"/>
<text x="846" font-size="11" y="14" clip-path="url(#clipPath2)" stroke="none" xml:space="preserve">4.5</text>
<text x="846" font-size="11" y="574" clip-path="url(#clipPath2)" stroke="none" xml:space="preserve">4.5</text>
<line clip-path="url(#clipPath2)" fill="none" x1="867" x2="867" y1="18" y2="20"/>
<line clip-path="url(#clipPath2)" fill="none" x1="867" x2="867" y1="560" y2="558"/>
<line clip-path="url(#clipPath2)" fill="none" x1="881" x2="881" y1="18" y2="20"/>
<line clip-path="url(#clipPath2)" fill="none" x1="881" x2="881" y1="560" y2="558"/>
<line clip-path="url(#clipPath2)" fill="none" x1="896" x2="896" y1="18" y2="20"/>
<line clip-path="url(#clipPath2)" fill="none" x1="896" x2="896" y1="560" y2="558"/>
<line clip-path="url(#clipPath2)" fill="none" x1="911" x2="911" y1="18" y2="20"/>
<line clip-path="url(#clipPath2)" fill="none" x1="911" x2="911" y1="560" y2="558"/>
<line clip-path="url(#clipPath2)" fill="none" x1="926" x2="926" y1="16" y2="20"/>
<line clip-path="url(#clipPath2)" fill="none" x1="926" x2="926" y1="562" y2="558"/>
<text x="920" font-size="11" y="14" clip-path="url(#clipPath2)" stroke="none" xml:space="preserve">5.0</text>
<text x="920" font-size="11" y="574" clip-path="url(#clipPath2)" stroke="none" xml:space="preserve">5.0</text>
<line clip-path="url(#clipPath2)" fill="none" x1="940" x2="940" y1="18" y2="20"/>
<line clip-path="url(#clipPath2)" fill="none" x1="940" x2="940" y1="560" y2="558"/>
<line clip-path="url(#clipPath2)" fill="none" x1="955" x2="955" y1="18" y2="20"/>
<line clip-path="url(#clipPath2)" fill="none" x1="955" x2="955" y1="560" y2="558"/>
<line clip-path="url(#clipPath2)" fill="none" x1="970" x2="970" y1="18" y2="20"/>
<line clip-path="url(#clipPath2)" fill="none" x1="970" x2="970" y1="560" y2="558"/>
<line clip-path="url(#clipPath2)" fill="none" x1="985" x2="985" y1="18" y2="20"/>
<line clip-path="url(#clipPath2)" fill="none" x1="985" x2="985" y1="560" y2="558"/>
<line clip-path="url(#clipPath2)" fill="none" x1="999" x2="999" y1="16" y2="20"/>
<line clip-path="url(#clipPath2)" fill="none" x1="999" x2="999" y1="562" y2="558"/>
<text x="993" font-size="11" y="14" clip-path="url(#clipPath2)" stroke="none" xml:space="preserve">5.5</text>
<text x="993" font-size="11" y="574" clip-path="url(#clipPath2)" stroke="none" xml:space="preserve">5.5</text>
<line clip-path="url(#clipPath2)" fill="none" x1="1014" x2="1014" y1="18" y2="20"/>
<line clip-path="url(#clipPath2)" fill="none" x1="1014" x2="1014" y1="560" y2="558"/>
<line clip-path="url(#clipPath2)" fill="none" x1="1029" x2="1029" y1="18" y2="20"/>
<line clip-path="url(#clipPath2)" fill="none" x1="1029" x2="1029" y1="560" y2="558"/>
<line clip-path="url(#clipPath2)" fill="none" x1="1044" x2="1044" y1="18" y2="20"/>
<line clip-path="url(#clipPath2)" fill="none" x1="1044" x2="1044" y1="560" y2="558"/>
<line clip-path="url(#clipPath2)" fill="none" x1="1058" x2="1058" y1="18" y2="20"/>
<line clip-path="url(#clipPath2)" fill="none" x1="1058" x2="1058" y1="560" y2="558"/>
<line clip-path="url(#clipPath2)" fill="none" x1="1073" x2="1073" y1="16" y2="20"/>
<line clip-path="url(#clipPath2)" fill="none" x1="1073" x2="1073" y1="562" y2="558"/>
<text x="1067" font-size="11" y="14" clip-path="url(#clipPath2)" stroke="none" xml:space="preserve">6.0</text>
<text x="1067" font-size="11" y="574" clip-path="url(#clipPath2)" stroke="none" xml:space="preserve">6.0</text>
<line clip-path="url(#clipPath2)" fill="none" x1="1088" x2="1088" y1="18" y2="20"/>
<line clip-path="url(#clipPath2)" fill="none" x1="1088" x2="1088" y1="560" y2="558"/>
<line clip-path="url(#clipPath2)" fill="none" x1="1103" x2="1103" y1="18" y2="20"/>
<line clip-path="url(#clipPath2)" fill="none" x1="1103" x2="1103" y1="560" y2="558"/>
<line clip-path="url(#clipPath2)" fill="none" x1="1117" x2="1117" y1="18" y2="20"/>
<line clip-path="url(#clipPath2)" fill="none" x1="1117" x2="1117" y1="560" y2="558"/>
<line clip-path="url(#clipPath2)" fill="none" x1="1132" x2="1132" y1="18" y2="20"/>
<line clip-path="url(#clipPath2)" fill="none" x1="1132" x2="1132" y1="560" y2="558"/>
<line clip-path="url(#clipPath2)" fill="none" x1="1147" x2="1147" y1="16" y2="20"/>
<line clip-path="url(#clipPath2)" fill="none" x1="1147" x2="1147" y1="562" y2="558"/>
<text x="1141" font-size="11" y="14" clip-path="url(#clipPath2)" stroke="none" xml:space="preserve">6.5</text>
<text x="1141" font-size="11" y="574" clip-path="url(#clipPath2)" stroke="none" xml:space="preserve">6.5</text>
<line clip-path="url(#clipPath2)" fill="none" x1="1162" x2="1162" y1="18" y2="20"/>
<line clip-path="url(#clipPath2)" fill="none" x1="1162" x2="1162" y1="560" y2="558"/>
<line clip-path="url(#clipPath2)" fill="none" x1="1176" x2="1176" y1="18" y2="20"/>
<line clip-path="url(#clipPath2)" fill="none" x1="1176" x2="1176" y1="560" y2="558"/>
<line clip-path="url(#clipPath2)" fill="none" x1="1191" x2="1191" y1="18" y2="20"/>
<line clip-path="url(#clipPath2)" fill="none" x1="1191" x2="1191" y1="560" y2="558"/>
<line clip-path="url(#clipPath2)" fill="none" x1="1206" x2="1206" y1="18" y2="20"/>
<line clip-path="url(#clipPath2)" fill="none" x1="1206" x2="1206" y1="560" y2="558"/>
<line clip-path="url(#clipPath2)" fill="none" x1="1221" x2="1221" y1="16" y2="20"/>
<line clip-path="url(#clipPath2)" fill="none" x1="1221" x2="1221" y1="562" y2="558"/>
<text x="1215" font-size="11" y="14" clip-path="url(#clipPath2)" stroke="none" xml:space="preserve">7.0</text>
<text x="1215" font-size="11" y="574" clip-path="url(#clipPath2)" stroke="none" xml:space="preserve">7.0</text>
<line clip-path="url(#clipPath2)" fill="none" x1="1236" x2="1236" y1="18" y2="20"/>
<line clip-path="url(#clipPath2)" fill="none" x1="1236" x2="1236" y1="560" y2="558"/>
<line clip-path="url(#clipPath2)" fill="none" x1="24" x2="24" y1="22" y2="556"/>
<line clip-path="url(#clipPath2)" fill="none" x1="1238" x2="1238" y1="22" y2="556"/>
<line clip-path="url(#clipPath2)" fill="none" x1="20" x2="24" y1="556" y2="556"/>
<line clip-path="url(#clipPath2)" fill="none" x1="1242" x2="1238" y1="556" y2="556"/>
<text x="14" font-size="11" y="561" clip-path="url(#clipPath2)" stroke="none" xml:space="preserve">0</text>
<text x="1245" font-size="11" y="561" clip-path="url(#clipPath2)" stroke="none" xml:space="preserve">0</text>
<line clip-path="url(#clipPath2)" fill="none" x1="22" x2="24" y1="545" y2="545"/>
<line clip-path="url(#clipPath2)" fill="none" x1="1240" x2="1238" y1="545" y2="545"/>
<line clip-path="url(#clipPath2)" fill="none" x1="22" x2="24" y1="535" y2="535"/>
<line clip-path="url(#clipPath2)" fill="none" x1="1240" x2="1238" y1="535" y2="535"/>
<line clip-path="url(#clipPath2)" fill="none" x1="22" x2="24" y1="525" y2="525"/>
<line clip-path="url(#clipPath2)" fill="none" x1="1240" x2="1238" y1="525" y2="525"/>
<line clip-path="url(#clipPath2)" fill="none" x1="22" x2="24" y1="515" y2="515"/>
<line clip-path="url(#clipPath2)" fill="none" x1="1240" x2="1238" y1="515" y2="515"/>
<line clip-path="url(#clipPath2)" fill="none" x1="20" x2="24" y1="505" y2="505"/>
<line clip-path="url(#clipPath2)" fill="none" x1="1242" x2="1238" y1="505" y2="505"/>
<text x="14" font-size="11" y="510" clip-path="url(#clipPath2)" stroke="none" xml:space="preserve">5</text>
<text x="1245" font-size="11" y="510" clip-path="url(#clipPath2)" stroke="none" xml:space="preserve">5</text>
<line clip-path="url(#clipPath2)" fill="none" x1="22" x2="24" y1="495" y2="495"/>
<line clip-path="url(#clipPath2)" fill="none" x1="1240" x2="1238" y1="495" y2="495"/>
<line clip-path="url(#clipPath2)" fill="none" x1="22" x2="24" y1="485" y2="485"/>
<line clip-path="url(#clipPath2)" fill="none" x1="1240" x2="1238" y1="485" y2="485"/>
<line clip-path="url(#clipPath2)" fill="none" x1="22" x2="24" y1="475" y2="475"/>
<line clip-path="url(#clipPath2)" fill="none" x1="1240" x2="1238" y1="475" y2="475"/>
<line clip-path="url(#clipPath2)" fill="none" x1="22" x2="24" y1="465" y2="465"/>
<line clip-path="url(#clipPath2)" fill="none" x1="1240" x2="1238" y1="465" y2="465"/>
<line clip-path="url(#clipPath2)" fill="none" x1="20" x2="24" y1="455" y2="455"/>
<line clip-path="url(#clipPath2)" fill="none" x1="1242" x2="1238" y1="455" y2="455"/>
<text x="9" font-size="11" y="460" clip-path="url(#clipPath2)" stroke="none" xml:space="preserve">10</text>
<text x="1245" font-size="11" y="460" clip-path="url(#clipPath2)" stroke="none" xml:space="preserve">10</text>
<line clip-path="url(#clipPath2)" fill="none" x1="22" x2="24" y1="445" y2="445"/>
<line clip-path="url(#clipPath2)" fill="none" x1="1240" x2="1238" y1="445" y2="445"/>
<line clip-path="url(#clipPath2)" fill="none" x1="22" x2="24" y1="435" y2="435"/>
<line clip-path="url(#clipPath2)" fill="none" x1="1240" x2="1238" y1="435" y2="435"/>
<line clip-path="url(#clipPath2)" fill="none" x1="22" x2="24" y1="425" y2="425"/>
<line clip-path="url(#clipPath2)" fill="none" x1="1240" x2="1238" y1="425" y2="425"/>
<line clip-path="url(#clipPath2)" fill="none" x1="22" x2="24" y1="415" y2="415"/>
<line clip-path="url(#clipPath2)" fill="none" x1="1240" x2="1238" y1="415" y2="415"/>
<line clip-path="url(#clipPath2)" fill="none" x1="20" x2="24" y1="405" y2="405"/>
<line clip-path="url(#clipPath2)" fill="none" x1="1242" x2="1238" y1="405" y2="405"/>
<text x="9" font-size="11" y="410" clip-path="url(#clipPath2)" stroke="none" xml:space="preserve">15</text>
<text x="1245" font-size="11" y="410" clip-path="url(#clipPath2)" stroke="none" xml:space="preserve">15</text>
<line clip-path="url(#clipPath2)" fill="none" x1="22" x2="24" y1="395" y2="395"/>
<line clip-path="url(#clipPath2)" fill="none" x1="1240" x2="1238" y1="395" y2="395"/>
<line clip-path="url(#clipPath2)" fill="none" x1="22" x2="24" y1="385" y2="385"/>
<line clip-path="url(#clipPath2)" fill="none" x1="1240" x2="1238" y1="385" y2="385"/>
<line clip-path="url(#clipPath2)" fill="none" x1="22" x2="24" y1="375" y2="375"/>
<line clip-path="url(#clipPath2)" fill="none" x1="1240" x2="1238" y1="375" y2="375"/>
<line clip-path="url(#clipPath2)" fill="none" x1="22" x2="24" y1="365" y2="365"/>
<line clip-path="url(#clipPath2)" fill="none" x1="1240" x2="1238" y1="365" y2="365"/>
<line clip-path="url(#clipPath2)" fill="none" x1="20" x2="24" y1="355" y2="355"/>
<line clip-path="url(#clipPath2)" fill="none" x1="1242" x2="1238" y1="355" y2="355"/>
<text x="9" font-size="11" y="360" clip-path="url(#clipPath2)" stroke="none" xml:space="preserve">20</text>
<text x="1245" font-size="11" y="360" clip-path="url(#clipPath2)" stroke="none" xml:space="preserve">20</text>
<line clip-path="url(#clipPath2)" fill="none" x1="22" x2="24" y1="345" y2="345"/>
<line clip-path="url(#clipPath2)" fill="none" x1="1240" x2="1238" y1="345" y2="345"/>
<line clip-path="url(#clipPath2)" fill="none" x1="22" x2="24" y1="335" y2="335"/>
<line clip-path="url(#clipPath2)" fill="none" x1="1240" x2="1238" y1="335" y2="335"/>
<line clip-path="url(#clipPath2)" fill="none" x1="22" x2="24" y1="325" y2="325"/>
<line clip-path="url(#clipPath2)" fill="none" x1="1240" x2="1238" y1="325" y2="325"/>
<line clip-path="url(#clipPath2)" fill="none" x1="22" x2="24" y1="315" y2="315"/>
<line clip-path="url(#clipPath2)" fill="none" x1="1240" x2="1238" y1="315" y2="315"/>
<line clip-path="url(#clipPath2)" fill="none" x1="20" x2="24" y1="305" y2="305"/>
<line clip-path="url(#clipPath2)" fill="none" x1="1242" x2="1238" y1="305" y2="305"/>
<text x="9" font-size="11" y="310" clip-path="url(#clipPath2)" stroke="none" xml:space="preserve">25</text>
<text x="1245" font-size="11" y="310" clip-path="url(#clipPath2)" stroke="none" xml:space="preserve">25</text>
<line clip-path="url(#clipPath2)" fill="none" x1="22" x2="24" y1="295" y2="295"/>
<line clip-path="url(#clipPath2)" fill="none" x1="1240" x2="1238" y1="295" y2="295"/>
<line clip-path="url(#clipPath2)" fill="none" x1="22" x2="24" y1="285" y2="285"/>
<line clip-path="url(#clipPath2)" fill="none" x1="1240" x2="1238" y1="285" y2="285"/>
<line clip-path="url(#clipPath2)" fill="none" x1="22" x2="24" y1="275" y2="275"/>
<line clip-path="url(#clipPath2)" fill="none" x1="1240" x2="1238" y1="275" y2="275"/>
<line clip-path="url(#clipPath2)" fill="none" x1="22" x2="24" y1="265" y2="265"/>
<line clip-path="url(#clipPath2)" fill="none" x1="1240" x2="1238" y1="265" y2="265"/>
<line clip-path="url(#clipPath2)" fill="none" x1="20" x2="24" y1="255" y2="255"/>
<line clip-path="url(#clipPath2)" fill="none" x1="1242" x2="1238" y1="255" y2="255"/>
<text x="9" font-size="11" y="260" clip-path="url(#clipPath2)" stroke="none" xml:space="preserve">30</text>
<text x="1245" font-size="11" y="260" clip-path="url(#clipPath2)" stroke="none" xml:space="preserve">30</text>
<line clip-path="url(#clipPath2)" fill="none" x1="22" x2="24" y1="245" y2="245"/>
<line clip-path="url(#clipPath2)" fill="none" x1="1240" x2="1238" y1="245" y2="245"/>
<line clip-path="url(#clipPath2)" fill="none" x1="22" x2="24" y1="235" y2="235"/>
<line clip-path="url(#clipPath2)" fill="none" x1="1240" x2="1238" y1="235" y2="235"/>
<line clip-path="url(#clipPath2)" fill="none" x1="22" x2="24" y1="225" y2="225"/>
<line clip-path="url(#clipPath2)" fill="none" x1="1240" x2="1238" y1="225" y2="225"/>
<line clip-path="url(#clipPath2)" fill="none" x1="22" x2="24" y1="215" y2="215"/>
<line clip-path="url(#clipPath2)" fill="none" x1="1240" x2="1238" y1="215" y2="215"/>
<line clip-path="url(#clipPath2)" fill="none" x1="20" x2="24" y1="205" y2="205"/>
<line clip-path="url(#clipPath2)" fill="none" x1="1242" x2="1238" y1="205" y2="205"/>
<text x="9" font-size="11" y="210" clip-path="url(#clipPath2)" stroke="none" xml:space="preserve">35</text>
<text x="1245" font-size="11" y="210" clip-path="url(#clipPath2)" stroke="none" xml:space="preserve">35</text>
<line clip-path="url(#clipPath2)" fill="none" x1="22" x2="24" y1="195" y2="195"/>
<line clip-path="url(#clipPath2)" fill="none" x1="1240" x2="1238" y1="195" y2="195"/>
<line clip-path="url(#clipPath2)" fill="none" x1="22" x2="24" y1="185" y2="185"/>
<line clip-path="url(#clipPath2)" fill="none" x1="1240" x2="1238" y1="185" y2="185"/>
<line clip-path="url(#clipPath2)" fill="none" x1="22" x2="24" y1="175" y2="175"/>
<line clip-path="url(#clipPath2)" fill="none" x1="1240" x2="1238" y1="175" y2="175"/>
<line clip-path="url(#clipPath2)" fill="none" x1="22" x2="24" y1="165" y2="165"/>
<line clip-path="url(#clipPath2)" fill="none" x1="1240" x2="1238" y1="165" y2="165"/>
<line clip-path="url(#clipPath2)" fill="none" x1="20" x2="24" y1="155" y2="155"/>
<line clip-path="url(#clipPath2)" fill="none" x1="1242" x2="1238" y1="155" y2="155"/>
<text x="9" font-size="11" y="160" clip-path="url(#clipPath2)" stroke="none" xml:space="preserve">40</text>
<text x="1245" font-size="11" y="160" clip-path="url(#clipPath2)" stroke="none" xml:space="preserve">40</text>
<line clip-path="url(#clipPath2)" fill="none" x1="22" x2="24" y1="145" y2="145"/>
<line clip-path="url(#clipPath2)" fill="none" x1="1240" x2="1238" y1="145" y2="145"/>
<line clip-path="url(#clipPath2)" fill="none" x1="22" x2="24" y1="135" y2="135"/>
<line clip-path="url(#clipPath2)" fill="none" x1="1240" x2="1238" y1="135" y2="135"/>
<line clip-path="url(#clipPath2)" fill="none" x1="22" x2="24" y1="125" y2="125"/>
<line clip-path="url(#clipPath2)" fill="none" x1="1240" x2="1238" y1="125" y2="125"/>
<line clip-path="url(#clipPath2)" fill="none" x1="22" x2="24" y1="115" y2="115"/>
<line clip-path="url(#clipPath2)" fill="none" x1="1240" x2="1238" y1="115" y2="115"/>
<line clip-path="url(#clipPath2)" fill="none" x1="20" x2="24" y1="105" y2="105"/>
<line clip-path="url(#clipPath2)" fill="none" x1="1242" x2="1238" y1="105" y2="105"/>
<text x="9" font-size="11" y="110" clip-path="url(#clipPath2)" stroke="none" xml:space="preserve">45</text>
<text x="1245" font-size="11" y="110" clip-path="url(#clipPath2)" stroke="none" xml:space="preserve">45</text>
<line clip-path="url(#clipPath2)" fill="none" x1="22" x2="24" y1="95" y2="95"/>
<line clip-path="url(#clipPath2)" fill="none" x1="1240" x2="1238" y1="95" y2="95"/>
<line clip-path="url(#clipPath2)" fill="none" x1="22" x2="24" y1="85" y2="85"/>
<line clip-path="url(#clipPath2)" fill="none" x1="1240" x2="1238" y1="85" y2="85"/>
<line clip-path="url(#clipPath2)" fill="none" x1="22" x2="24" y1="75" y2="75"/>
<line clip-path="url(#clipPath2)" fill="none" x1="1240" x2="1238" y1="75" y2="75"/>
<line clip-path="url(#clipPath2)" fill="none" x1="22" x2="24" y1="65" y2="65"/>
<line clip-path="url(#clipPath2)" fill="none" x1="1240" x2="1238" y1="65" y2="65"/>
<line clip-path="url(#clipPath2)" fill="none" x1="20" x2="24" y1="55" y2="55"/>
<line clip-path="url(#clipPath2)" fill="none" x1="1242" x2="1238" y1="55" y2="55"/>
<text x="9" font-size="11" y="60" clip-path="url(#clipPath2)" stroke="none" xml:space="preserve">50</text>
<text x="1245" font-size="11" y="60" clip-path="url(#clipPath2)" stroke="none" xml:space="preserve">50</text>
<line clip-path="url(#clipPath2)" fill="none" x1="22" x2="24" y1="45" y2="45"/>
<line clip-path="url(#clipPath2)" fill="none" x1="1240" x2="1238" y1="45" y2="45"/>
<line clip-path="url(#clipPath2)" fill="none" x1="22" x2="24" y1="35" y2="35"/>
<line clip-path="url(#clipPath2)" fill="none" x1="1240" x2="1238" y1="35" y2="35"/>
<line clip-path="url(#clipPath2)" fill="none" x1="22" x2="24" y1="25" y2="25"/>
<line clip-path="url(#clipPath2)" fill="none" x1="1240" x2="1238" y1="25" y2="25"/>
</g>
</g>
</svg>
